<?xml version="1.0" encoding="utf-8"?>
<!-- Generator: Adobe Illustrator 17.0.0, SVG Export Plug-In . SVG Version: 6.00 Build 0)  -->
<svg version="1.2" baseProfile="tiny" id="Layer_1" xmlns="http://www.w3.org/2000/svg" xmlns:xlink="http://www.w3.org/1999/xlink"
	 x="0px" y="0px" width="678px" height="454px" viewBox="622.5 328.5 678 454" overflow="scroll" xml:space="preserve">
<g>
	<g>
		<path fill="none" stroke="#000000" stroke-miterlimit="10" d="M802.137,644.691c0,0-19.02,52.37,29.442,76.6
			c0,0-10.943-42.469-22.146-61.489c0,0,20.583,29.441,27.618,61.489C837.05,721.291,858.415,667.098,802.137,644.691z"/>
		<path fill="none" stroke="#000000" stroke-miterlimit="10" d="M763.658,623.358c0,0-20.99,45.534,20.647,70.903
			c0,0-6.622-38.906-15.24-56.804c0,0,16.246,27.948,20.147,57.215C789.212,694.672,812.442,647.679,763.658,623.358z"/>
		<path fill="none" stroke="#000000" stroke-miterlimit="10" d="M740.595,578.121c0,0-34.097,36.76-2.401,73.81
			c0,0,5.792-39.039,3.16-58.728c0,0,6.76,31.612,1.376,60.643C742.73,653.846,779.41,616.394,740.595,578.121z"/>
		<path fill="none" stroke="#000000" stroke-miterlimit="10" d="M728.219,535.571c0,0-35.614,21.634-16.4,59.191
			c0,0,12.446-30.228,14.092-46.798c0,0-0.527,27.208-10.681,49.43C715.23,597.394,753.133,575.816,728.219,535.571z"/>
		<path fill="none" stroke="#000000" stroke-miterlimit="10" d="M732.044,492.24c0,0-35.953,8.773-29.75,45.721
			c0,0,18.64-22.259,24.474-35.847c0,0-7.739,22.896-22.292,38.99C704.476,541.105,742.352,532.993,732.044,492.24z"/>
		<path fill="none" stroke="#000000" stroke-miterlimit="10" d="M749.303,454.471c0,0-32.917-1.675-37.039,31.438
			c0,0,21.579-14.246,30.02-24.356c0,0-12.438,17.567-28.958,27.594C713.326,489.147,747.716,491.875,749.303,454.471z"/>
		<path fill="none" stroke="#000000" stroke-miterlimit="10" d="M766.094,430.423c0,0-27.249-9.606-39.48,15.9
			c0,0,21.924-6.001,31.701-11.985c0,0-15.113,10.958-31.665,14.847C726.651,449.184,754.86,460.005,766.094,430.423z"/>
		<path fill="none" stroke="#000000" stroke-miterlimit="10" d="M788.762,404.238c0,0-27.249-9.606-39.48,15.9
			c0,0,21.924-6.001,31.701-11.985c0,0-15.113,10.958-31.665,14.847C749.318,422.999,777.528,433.82,788.762,404.238z"/>
		<path fill="none" stroke="#000000" stroke-miterlimit="10" d="M806.78,372.731c0,0-27.877-7.597-38.217,18.732
			c0,0,21.429-7.581,30.745-14.261c0,0-14.275,12.029-30.5,17.113C768.807,394.315,797.73,403.053,806.78,372.731z"/>
		<path fill="none" stroke="#000000" stroke-miterlimit="10" d="M766.766,359.858c0,0,12.374,24.745-10.979,39.259
			c0,0,3.354-21.478,8.057-31.435c0,0-8.925,15.585-10.836,31.728C753.009,399.41,739.35,373.893,766.766,359.858z"/>
		<path fill="none" stroke="#000000" stroke-miterlimit="10" d="M743.344,377.882c0,0,15.01,29.078-13.693,46.321
			c0,0,4.242-25.325,10.066-37.085c0,0-11.032,18.417-13.472,37.447C726.245,424.565,709.665,394.586,743.344,377.882z"/>
		<path fill="none" stroke="#000000" stroke-miterlimit="10" d="M709.919,398.477c0,0,25.823,29.366-2.462,57.67
			c0,0-2.415-30.591,0.932-45.911c0,0-7.458,24.547-4.776,47.317C703.613,457.554,675.709,427.598,709.919,398.477z"/>
		<path fill="none" stroke="#000000" stroke-miterlimit="10" d="M679.868,434.596c0,0,32.244,21.854,13.349,55.836
			c0,0-10.578-28.714-11.594-44.201c0,0-0.342,25.324,8.363,46.482C689.986,492.714,655.625,470.801,679.868,434.596z"/>
		<path fill="none" stroke="#000000" stroke-miterlimit="10" d="M657.638,472.122c0,0,44.434,17.942,29.042,64.498
			c0,0-19.479-32.165-24.246-50.78c0,0,5.344,30.981,20.811,54.436C683.245,540.276,636.207,522.833,657.638,472.122z"/>
		<path fill="none" stroke="#000000" stroke-miterlimit="10" d="M648.239,527.967c0,0,45.963,8.675,40.907,55.539
			c0,0-25.153-26.766-33.521-43.469c0,0,11.463,28.281,31.006,47.564C686.632,587.601,638.295,579.883,648.239,527.967z"/>
		<path fill="none" stroke="#000000" stroke-miterlimit="10" d="M648.128,582.021c0,0,46.727-2.108,52.565,44.665
			c0,0-30.626-20.277-42.604-34.614c0,0,17.649,24.895,41.096,39.176C699.184,631.249,650.366,634.834,648.128,582.021z"/>
		<path fill="none" stroke="#000000" stroke-miterlimit="10" d="M662.574,634.619c0,0,48.707-9.903,62.532,38.239
			c0,0-35.487-16.247-50.422-29.326c0,0,22.625,23.23,49.59,34.363C724.274,677.896,673.616,689.693,662.574,634.619z"/>
		<path fill="none" stroke="#000000" stroke-miterlimit="10" d="M692.234,692.638c0,0,40.9-24.684,68.953,14.438
			c0,0-37.371-3.256-55.113-10.277c0,0,27.98,13.729,55.985,15.107C762.059,711.905,720.003,738.934,692.234,692.638z"/>
		<path fill="none" stroke="#000000" stroke-miterlimit="10" d="M725.686,745.085c0,0,32.552-41.927,76.839-14.318
			c0,0-39.855,12.355-60.921,12.714c0,0,34.263,2.105,63.714-8.222C805.317,735.259,772.491,780.027,725.686,745.085z"/>
		<path fill="none" stroke="#000000" stroke-miterlimit="10" d="M766.094,395.418c0,0-101.259,79.596-66.92,201.944
			c0,0,29.398,132.788,167.357,146.467v-10.161c0,0-84.958-7.521-131.335-77.299c0,0-29.695-41.379-33.612-72.123
			C701.585,584.244,666.479,485.896,766.094,395.418z"/>
	</g>
	<g>
		<path fill="none" stroke="#000000" stroke-miterlimit="10" d="M1120.863,645.081c0,0,19.02,52.37-29.442,76.6
			c0,0,10.943-42.469,22.146-61.489c0,0-20.583,29.441-27.618,61.489C1085.95,721.682,1064.585,667.489,1120.863,645.081z"/>
		<path fill="none" stroke="#000000" stroke-miterlimit="10" d="M1159.342,623.749c0,0,20.99,45.534-20.647,70.903
			c0,0,6.622-38.906,15.24-56.804c0,0-16.246,27.948-20.147,57.215C1133.788,695.063,1110.558,648.07,1159.342,623.749z"/>
		<path fill="none" stroke="#000000" stroke-miterlimit="10" d="M1182.405,578.512c0,0,34.097,36.76,2.401,73.81
			c0,0-5.792-39.039-3.16-58.728c0,0-6.76,31.612-1.376,60.643C1180.27,654.237,1143.59,616.785,1182.405,578.512z"/>
		<path fill="none" stroke="#000000" stroke-miterlimit="10" d="M1194.781,535.962c0,0,35.614,21.634,16.4,59.191
			c0,0-12.446-30.228-14.092-46.798c0,0,0.527,27.208,10.681,49.43C1207.77,597.785,1169.867,576.207,1194.781,535.962z"/>
		<path fill="none" stroke="#000000" stroke-miterlimit="10" d="M1190.956,492.631c0,0,35.953,8.773,29.75,45.721
			c0,0-18.64-22.259-24.474-35.847c0,0,7.739,22.896,22.291,38.99C1218.524,541.495,1180.648,533.384,1190.956,492.631z"/>
		<path fill="none" stroke="#000000" stroke-miterlimit="10" d="M1173.697,454.862c0,0,32.917-1.675,37.039,31.438
			c0,0-21.579-14.246-30.02-24.356c0,0,12.438,17.567,28.958,27.594C1209.674,489.537,1175.284,492.266,1173.697,454.862z"/>
		<path fill="none" stroke="#000000" stroke-miterlimit="10" d="M1156.906,430.813c0,0,27.249-9.606,39.48,15.9
			c0,0-21.924-6.001-31.701-11.985c0,0,15.113,10.958,31.665,14.847C1196.349,449.575,1168.14,460.396,1156.906,430.813z"/>
		<path fill="none" stroke="#000000" stroke-miterlimit="10" d="M1134.238,404.629c0,0,27.249-9.606,39.48,15.9
			c0,0-21.924-6.001-31.701-11.985c0,0,15.113,10.958,31.665,14.847C1173.682,423.39,1145.472,434.211,1134.238,404.629z"/>
		<path fill="none" stroke="#000000" stroke-miterlimit="10" d="M1116.22,373.122c0,0,27.877-7.597,38.217,18.732
			c0,0-21.429-7.581-30.745-14.261c0,0,14.275,12.029,30.5,17.113C1154.193,394.706,1125.27,403.444,1116.22,373.122z"/>
		<path fill="none" stroke="#000000" stroke-miterlimit="10" d="M1156.234,360.248c0,0-12.374,24.745,10.978,39.259
			c0,0-3.354-21.478-8.057-31.435c0,0,8.925,15.585,10.836,31.728C1169.991,399.801,1183.65,374.284,1156.234,360.248z"/>
		<path fill="none" stroke="#000000" stroke-miterlimit="10" d="M1179.656,378.273c0,0-15.01,29.078,13.693,46.321
			c0,0-4.242-25.325-10.066-37.085c0,0,11.032,18.417,13.472,37.447C1196.755,424.956,1213.335,394.977,1179.656,378.273z"/>
		<path fill="none" stroke="#000000" stroke-miterlimit="10" d="M1213.081,398.868c0,0-25.823,29.366,2.462,57.67
			c0,0,2.415-30.591-0.932-45.911c0,0,7.458,24.547,4.776,47.317C1219.387,457.945,1247.291,427.989,1213.081,398.868z"/>
		<path fill="none" stroke="#000000" stroke-miterlimit="10" d="M1243.132,434.987c0,0-32.245,21.854-13.349,55.836
			c0,0,10.578-28.714,11.594-44.201c0,0,0.342,25.324-8.363,46.482C1233.014,493.105,1267.375,471.192,1243.132,434.987z"/>
		<path fill="none" stroke="#000000" stroke-miterlimit="10" d="M1265.362,472.513c0,0-44.434,17.942-29.042,64.498
			c0,0,19.479-32.165,24.246-50.78c0,0-5.344,30.981-20.811,54.435C1239.755,540.667,1286.793,523.224,1265.362,472.513z"/>
		<path fill="none" stroke="#000000" stroke-miterlimit="10" d="M1274.761,528.358c0,0-45.963,8.675-40.907,55.539
			c0,0,25.153-26.766,33.521-43.469c0,0-11.463,28.282-31.006,47.564C1236.368,587.991,1284.705,580.274,1274.761,528.358z"/>
		<path fill="none" stroke="#000000" stroke-miterlimit="10" d="M1274.872,582.412c0,0-46.727-2.108-52.564,44.665
			c0,0,30.626-20.277,42.604-34.614c0,0-17.649,24.895-41.096,39.176C1223.816,631.64,1272.634,635.225,1274.872,582.412z"/>
		<path fill="none" stroke="#000000" stroke-miterlimit="10" d="M1260.426,635.01c0,0-48.707-9.903-62.532,38.239
			c0,0,35.487-16.247,50.422-29.326c0,0-22.625,23.23-49.59,34.363C1198.726,678.286,1249.385,690.084,1260.426,635.01z"/>
		<path fill="none" stroke="#000000" stroke-miterlimit="10" d="M1230.766,693.029c0,0-40.899-24.684-68.953,14.438
			c0,0,37.371-3.256,55.113-10.277c0,0-27.98,13.729-55.985,15.107C1160.941,712.296,1202.997,739.325,1230.766,693.029z"/>
		<path fill="none" stroke="#000000" stroke-miterlimit="10" d="M1197.314,745.476c0,0-32.552-41.927-76.839-14.318
			c0,0,39.855,12.355,60.921,12.714c0,0-34.263,2.105-63.714-8.222C1117.683,735.65,1150.509,780.418,1197.314,745.476z"/>
		<path fill="none" stroke="#000000" stroke-miterlimit="10" d="M1156.906,395.809c0,0,101.259,79.596,66.92,201.944
			c0,0-29.398,132.788-167.357,146.467v-10.161c0,0,84.958-7.521,131.335-77.3c0,0,29.695-41.379,33.612-72.123
			C1221.415,584.635,1256.521,486.287,1156.906,395.809z"/>
	</g>
</g>
</svg>
