<?xml version="1.0" encoding="utf-8"?>
<!-- Generator: Adobe Illustrator 17.0.0, SVG Export Plug-In . SVG Version: 6.00 Build 0)  -->
<svg version="1.2" baseProfile="tiny" xmlns="http://www.w3.org/2000/svg" xmlns:xlink="http://www.w3.org/1999/xlink" x="0px"
	 y="0px" width="2021.133px" height="1224.502px" viewBox="0 0 2021.133 1224.502" xml:space="preserve">
<g id="Layer_2">
</g>
<g id="Layer_4">
</g>
<g id="Layer_10">
</g>
<g id="Layer_5">
	<g>
		<path fill="#5B453B" d="M1739.714,722.308c-0.166-0.353-0.364-0.631-0.603-0.806
			C1738.421,720.998,1738.737,721.368,1739.714,722.308z"/>
	</g>
	<linearGradient id="SVGID_1_" gradientUnits="userSpaceOnUse" x1="1015" y1="-22.4977" x2="1015" y2="1426.5023">
		<stop  offset="0.2755" style="stop-color:#F15B60"/>
		<stop  offset="0.4324" style="stop-color:#F1735D"/>
		<stop  offset="0.6171" style="stop-color:#F08A5B"/>
		<stop  offset="0.7347" style="stop-color:#F0925A"/>
	</linearGradient>
	<rect x="-27" y="-22.498" fill="url(#SVGID_1_)" width="2084" height="1449"/>
	<path fill="#CA5456" d="M1899.494-117.34c-48.881-15.768-201.657-67.321-337.348-46.275s-279.18,37.208-493.625,57.313
		S630.067-81.13,570.244-82.12c-59.824-0.99-213.371,4.55-276.187-10.605s-140.079-81.389-149.54-75.866
		c-9.461,5.523-39.42,27.598-52.034,62.288s-11.365,262.537-5.058,271.998S440.69,288.873,440.69,288.873l92.672-32.609
		l70.003-22.933l80.417,7.262l28.382-20.654c0,0,6.307-7.852,18.922-9.429c12.614-1.577,104.069-8.008,104.069-8.008h62.284
		c0,0,93.82,3.277,98.55,0.124s88.301,7.706,88.301,7.706l50.331-23.83c0,0,47.43,0,50.584,0s10.044,19.161,10.044,19.161
		l6.061,14.156l7.691-32.838v-7.48h25.085l14.191,6.288l7.096,4.712h26.017l9.461-11.221l10.528-1.415l25.622,85.67v38.552
		c0,0,0-0.781,0.053,18.766c0.053,19.547,37.947-80.099,37.947-80.099v-43.525l6.835-28.254l0,0l26.838-3.356l31.347,20.572
		l8.979,21.764v26.329l8.753,22.155l10.66-24.833l61.368-78.664l34.487,2.502c0,0,18.617-3.454,33.489-4.418l17.497,1.649
		c6.283,4.019-9.579-1.259,7.263,4.346c17.345,5.772,33.113,25.229,40.997,29.959c7.884,4.73,83.57,17.345,83.57,17.345
		l96.791-4.252c0,0,49.063-52.512,49.063-61.973c0-9.461,63.86-164.706,63.86-164.706S1948.375-101.572,1899.494-117.34z"/>
	<g>
		<path fill="#A44E4B" d="M1489,1134.002c1.935,0,1.935-3,0-3S1487.065,1134.002,1489,1134.002L1489,1134.002z"/>
	</g>
	<path fill="#F05A60" d="M-35.901,811.855l326.838-7.462l275.833-2.891H1720h336h86c0,0,10,209,0,242s2,220,2,220l-2,66l-46,49
		c0,0-752,0-812,0s-776,0-816,0s-387,0-387,0l-155.5-49l-32.8-197L-35.901,811.855z"/>
	<polygon fill="#F0925A" points="1170.845,98.789 1170.845,784.367 1181.73,807.062 1183.958,89.051 	"/>
	<g>
		<path fill="#F0925A" d="M1858,1020.328c0,0,0.178,0.024,0.517,0.07C2211.049,1023.678,1858,1020.328,1858,1020.328z"/>
		<path fill="#F0925A" d="M1699.553,1325.668c137.81-18.359,279.432-25.114,414.402-56.481
			c50.592-11.758,106.279-36.706,28.629-57.497c-97.71-26.163-206.382-30.37-307.857-36.044
			c-76.714-4.29-153.594-5.263-230.317-9.301c-38.793-2.042-107.845,2.297-142.105-18.155
			c-25.628-15.3,112.383-27.923,113.761-27.996c89.714-4.764,179.574-10.24,268.751-20.047
			c12.459-1.37,163.055-13.598,152.407-40.399c-21.861-55.026-281.941-43.051-305.243-44.611
			c-22.117-1.481-148.752-6.343-118.982-42.365c92.198-1.134,196.977,4.241,285.654-21.371
			c50.819-14.678,0.747-26.405-25.984-28.509c-62.894-4.951-170.032,21.497-223.673-10.793
			c-34.734-20.909,99.381-21.196,100.202-21.236c170.309-8.154-66.195-29.842-88.335-37.622
			c9.02-13.916,120.402-25.088,118.799-30.392c-5.222-17.274-193.765-8.888-209.728-8.888c-15.98,0-87.25-9.313-95.819,4.538
			c-15.519,25.087,75.591,16.002,90.922,24.934c26.288,15.316-131.661,17.872-145.261,18.881
			c-98.528,7.309,1.102,18.135,38.92,21.414c66.962,5.807-62.366,24.045-74.782,24.692c-22.577,1.177-270.593,0.203-269.826,25.564
			c0.108,3.56,167.92,17.793,153.172,37.634c-10.899,14.664-48.621,17.353-65.972,19.955
			c-67.058,10.06-135.921,12.46-203.848,14.163c-168.234,4.218-341.776-11.279-508.645,12.434
			c-53.045,7.538-67.166,25.41-7.03,34.494c126.539,19.115,258.196-2.687,384.711,18.891c10.908,1.86,121.813,20.452,109.22,37.097
			c-14.965,19.78-81.534,18.924-103.994,20.881c-113.421,9.882-228.053,11.397-341.957,12.969
			c-92.634,1.278-185.286,1.602-277.931,1.468c-61.842-0.09-123.683-0.399-185.522-0.865c-33.158-0.25-56.897-13.23-59.301,16.133
			c-6.873,83.916-13.745,167.833-20.618,251.749c367.284-8.391,734.568-16.781,1101.853-25.171
			c169.19-3.865,336.87,5.035,506.022,11.79c139.431,5.568,278.864,11.125,418.315,16.32c85.8,3.197,148.349,23.5,201.269-42.729
			c4.258-5.329,8.372-10.737,12.33-16.229C2023.958,1345.2,1861.756,1335.434,1699.553,1325.668z"/>
	</g>
	<path fill="#A44E4B" d="M1773,177.502"/>
	<path fill="#A44E4B" d="M2074,72.886c-10.131-22.979-40.088-41.14-73.044-48.262C1968,17.502,1806,19.502,1793,19.502
		s-27-3.517-33-0.259c-2.023,1.099-7.115,9.393-12.975,19.902c-44.639-45.592-99.864-97.749-104.734-99.141
		c-8.278-2.365-313.373-55.579-347.667-47.302c-34.294,8.278-841.969,4.73-841.969,4.73S213.782-0.868,199.591,3.862
		s413.846,150.142,413.846,150.142S736.443,321.945,736.443,338.5s-4.719,46.129-4.719,46.129l4.261,26.021L784,336.156v-42.653
		l31.263,21.367c0,0,9.676,31.929,13.224,42.571c3.548,10.643,0.108,68.587,0.108,68.587l8.332,63.857
		c0,0,2.392,49.667,0.027,54.397c-2.365,4.73-28.367,40.206-35.463,46.119c-7.095,5.913-11.819,24.833-11.819,24.833
		s1.186,4.73-4.727,8.278s-9.459,1.183-11.824,5.913c-2.365,4.73,5.914,9.46-5.912,15.373c-11.825,5.913-8.277,3.548-23.65,11.825
		c-15.373,8.278-20.103,11.825-43.754,18.921s-135.992-2.365-146.635,0c-9.415,2.092-213.178,7.886-264.969,10.014
		c-103.609-20.779-179.557-56.285-179.557-56.285l2.555,16.228l0.8,5.078L41.96,670.34c-9.205,0-62.665,9.001-68.945,0
		c-6.28-9.001-60.293,87.163-60.293,87.163l-20.018,23.02c0,0,32.568,29.13,107.298,20.98s116.149-21.849,129.943-21
		c13.794,0.848,31.795,23.154,64.798,0c14.442-10.132,27.965-19.852,38.609-27.581l954.217,4.581h594.453l148.219-21.621
		l-41.719-49.581c16.297-0.189,25.078-0.291,25.078-0.291s-5.864-2.833-14.478-6.703l9.001-5.917l-4.522-26.683l-140.335,1.903
		l-73.321-5.057l-7.096-7.884l-4.73-12.614l-10.996-19.71l-15.021,3.942c0,0-13.403,16.556-15.768,18.133
		c-2.365,1.577-7.884,10.249-7.884,10.249l-8.672,8.672c0,0-19.71,1.577-22.864,0.788s-8.672-7.884-8.672-7.884l-26.806-17.768
		c0,0-16.907-14.978-20.724-18.651c2.119,4.501-2.928,26.17-2.928,26.17s5.519,14.98,0,15.768s-102.492-1.577-102.492-1.577
		l-44.15,7.422c0,0-41.785-2.692-44.15-3.48s-13.403-11.038-13.403-11.038s-41.785-19.71-48.881-18.922
		c-7.095,0.788-66.035-22.075-66.035-22.075L1196,587.576v9.461l-29.361-9.41l3.752,11.876h-7.884l7.884,7.834l-3.942,8.647
		c0,0-25.229,9.448-42.574,28.37c-13.462,14.686-111.564-3.538-148.811-9.606l-47.422-43.554c0,0-72.924-156.096,51.243-273.168
		s109.977-91.844,126.533-93.026c5.058-0.361,13.825,4.792,26.843-3.201l16.055-2.46l18.922,0.055l9.461,12.391l6.307,3.718h7.096
		h3.942h7.884l4.73-15.544c0,0-3.942-2.253,0-4.619c3.942-2.365,25.229-24.384,25.229-24.384l6.307-25.989l-11.403-22.158
		l335.088-25.429l-30.746,85.146c0,0,11.825,3.549,17.738,5.914c5.913,2.365,43.754,22.469,47.302,26.017
		c3.548,3.548,30.746,41.851,39.024,50.85c8.278,8.998,18.921,34.294,18.921,34.294l5.913,36.659c0,0,5.913,37.841,8.278,42.572
		c2.365,4.73,11.825,36.777,11.825,36.777s2.365-73.436,3.548-76.983c1.183-3.548,23.651-43.754,23.651-43.754l20.103-23.651
		l11.825-4.73l50.849-53.214c0,0,4.328-34.626,8.204-68.022l18.688-5.75c0,0,10-6,16,0s9,9.333,14,10.167c5,0.833,25,7.833,25,7.833
		s7.398,3,12.699,0S1965,156.836,1965,156.836s11,2.333,14,0s42.133,5.667,42.133,5.667s38.881-14,46.374-29
		S2084.131,95.865,2074,72.886z"/>
</g>
<g id="Layer_8">
</g>
<g id="Layer_6">
	<g id="Layer_7">
	</g>
	<path fill="#364C39" d="M381.778-232.813"/>
	<polygon fill="#F0925A" points="212.666,70.167 212.666,782.352 234.109,805.928 238.499,60.051 	"/>
	<path fill="#7D4941" d="M2114.935,60.165l-273.027-43.663h-50.066l65.868-98.029c0,0-1542.11,79.557-1546.052,75.402
		S83.81-48.197,83.81-48.197l27.503,82.849c-83.849-2.141-171.876-4.709-182.174,0.263c-19.862,9.589-38.638,76.137-38.638,76.137
		S-23,211.294-23,220.002c0,8.708,152.944-36.629,152.944-36.629l29.014-5.197l16.307,49.122l47.372-24.796h55.908l33.113,12.464
		c0,0,84.359-13.845,104.857-12.658c20.498,1.187,137.182-46.333,137.182-46.333l102.991-28.509l228.137,28.485l131.624-28.497
		c0,0,50.764-14.635,80.984-0.388c30.219,14.246,248.138,46.436,248.138,46.436h116.363c0,0,49.018-18.173,91.048-37.295
		l42.981,3.18l74.968,16.253l38.964-14.139H1773l89.116-30.451l129.806,22.281l94.095,22.17H2136L2114.935,60.165z"/>
	<polygon fill="#F0925A" points="1581.375,-26.503 1581.375,920.164 1607.625,951.502 1613,-39.949 	"/>
	<path fill="#313D2C" d="M501.284-70.783l149.078,37.948l48.525,45.337c0,0-5.854,8,18.146,0S850.57-27.362,850.57-27.362
		L965.538-68.51l74.416,41.148c0,0,44.048,11.865,68.548,15.865s4.499,4,60.499,4s98,0,129-4s119-15.865,119-15.865l75.564,23.865
		c0,0-41.564,27.111,59.436,19.556c101-7.556,109,18.215,145,1.33s81-24.885,98.5-24.885s21.5-4,37.5,4s29.116,26.741,29.116,26.741
		s34.884-5.259,46.884,0s16-1.259,44,0s88,2.081,88,2.081s4-31.285,20-48.054s-0.133-49.769-20-57.269s8-35.5-132-35.5s-238,0-361,0
		s-902.864-17-964.367-17s-472.633,0-472.633,0s0,1-65,33s-77,43.823-91,45.911s-64.5,0-64.5,0L-87-15.498l16.138,16L-51,25.325
		l24,19.177h42v16h37c0,0,32.506-16.016,52,0s42,11.343,42,11.343l24,0.634c0,0,110.29,27.978,109,0s-19.798,7.444,55.5-23.978
		S487.717,0.904,499.478-1.538S501.284-70.783,501.284-70.783z"/>
	<path fill="#5B453A" d="M-141.291-7.728L37.863,72.886c0,0,491.901-36.156,493.907-43.383
		c2.006-7.227,746.081-43.231,746.081-43.231l705.071,33.003l163.523,10.228l52.499-173l-62.943-54l-2226.286,44L-141.291-7.728z"/>
	<g>
		<path fill="#5B453A" d="M2043.531-37.147c0,0-134.642-11.35-143.086-11.35s-140.444,0-140.444,0l0.97,27.907
			C1531.292-35.738,712.016-89.747,706.593-89.747c-6.307,0-518.647,65.212-518.647,65.212l-9.952,47.578
			C91.81,21.361-9.555,22.733-70.862,34.915C-193.723,59.327-109.5,60.051-109.5,60.051l38.638,68.451l47.862,19l34.863,19
			l24.612-7.931l9.134,115.965l37.956-137.041L111,128.502h44.934l-9.065,43.337c9.467-1.572,45.517-14.11,57.451-18.052
			c11.934-3.942,24.552,3.983,35.59,0.041s12.616,1.686,26.807-1.118c14.191-2.804,36.267-7.524,47.305-9.101
			s28.383,1.582,33.113,0.005c4.73-1.577,15.768-0.453,15.768-0.453s3.154-6.639,9.461-10.975
			c6.307-4.336,25.229-23.257,33.113-17.738c7.884,5.519,17.346,24.998,34.69,17.739c5.559-2.327,12.09-3.158,18.399-3.218
			c22.876,88.213,86.107,374.911-19.912,503.458c0,0-2.556,3.19-7.655,8.405c-6.307-19.134-13.018-38.573-16.995-58.761
			c0.332-1.248,0.674-2.531,1.023-3.84c-9.123-7.272-17.815-15.559-19.093-21.546c-2.819-13.21-15.636-49.292-15.636-49.292
			l-20.761,93.074l-42.364,76.736c0,0-8.388-52.826-9.816-56.132c-1.152-2.668-7.741-44.746-10.241-60.891l-17.793-3.33
			l-26.277,170.252c-18.023,2.607-37.364,3.984-58.039,3.706l-38.782,13.564l-73.44,25.687C68.73,760.349,46,721.276,46,721.276
			v-62.774l-19.274-42.168L0,579.502l-80.628,141.774l40.354,36.308c-9.001,11.847-63.039,25.09-67.027,22.939
			c-3.988-2.152-51.993,26.55-51.993,26.55s4.863,2.384,12.137,5.43c14.856,6.219,39.771,15.195,53.87,12.248
			c21.002-4.391,216.324,1.357,240.176-0.003s128.693-7.337,140.655-8.019c0.03-0.002,0.065-0.005,0.096-0.007l109.13-6.22
			c0,0,24.475,0,29.205,0c1.082,0,27.901,2.721,31.656,2.212l47.725,1.846c2.732,0.274,16.882-0.544,18.073-0.544
			c6.307,0,20.881,3.16,36.649,1.583c3.512-0.351,13.198,1.379,18.446,1.167l15.694,0.126l999.293,9.538
			c0,0,48.407,4.015,72.448-3.139c44.244,0.247,80.652-2.583,103.263-4.943l20.778,1.154l28,5h32l18-4.122l26,4.365l21.444-5.243
			c0,0,35.556-2,53.932-4s47.624,0,51.757,0s19.756-12,19.756-12s-2.889-23-0.889-27s0-55,0-55.226s-12-134.774-12-134.774l2-46
			c0,0-19,3-22,6s-26,22-26,22s-15,10-30,22s-19,18-21.758,21s-30.242,2-34.242,1s-15.089,39.836-15.089,39.836l-18.795,43.164
			c0,0-43.526-34.177-66.355-9.644c-2.246-7.233-4.24-13.854-5.75-19.204l1.834,2.327c-2.954-13.415-5.715-27.571-6.586-30.957
			c-1.416-5.506-19.93-57.288-19.93-57.288l-35.698-82.665l-13.326,27.968l2.422,31.775l8.792,29.626l2.172,2.756l6.533,76.473
			l-19.127,15.979c0,0-7.408,0.763-8.453-1.655c-1.044-2.418-19.945-27.453-20.989-29.871c-1.044-2.418-3.818-74.811-3.818-74.811
			l-16.087,40.033l-16.109,44.23l-22.495,51.345l-18.567,8.612l-37.534-0.88l-16.996,13.207l-15.587,11.187l-33.108,1.1
			l-9.228-0.221l-60.638-57.31l-0.506,5.926l-2.201,25.639l-5.154,16.68l-5.812,4.829l-2.745,2.631l-216.283-5.17l-128.083,5.889
			l-57.806-5.992l-15.792-13.964c0,0-4.342-5.52-5.779-7.177c-1.437-1.657-7.871-14.883-7.871-14.883l-5.98-95.137l-45.248,76.187
			l-21.859,31.796l-19.556,26.656l-29.599-32.488l-2.832-10.899l-10.755-16.534l-29.646-0.164l-26.179,26.791l-9.498,17.746
			l-20.876,15.272l-37.669-2.041c-54.043-66.399-122.008-235.409-49.418-644.173c4.036-1.044,8.042-2.244,15.267-3.448
			c18.922-3.154,37.562-6.617,50.317-14.346c12.755-7.729,33.253-22.847,44.291-18.442s19.985-4.405,30.491,0
			c10.506,4.405,18.39,1.902,35.734,0c17.345-1.902,15.768-9.136,37.843,0c22.075,9.136,22.075,9.136,22.075,9.136l22.309,30.284
			c0,0,25,42.249,28.151,64.324s-0.003,57.228,3.939,64.88s26.919-114.1,27.257-121.026c0.337-6.926-1.24-19.85,0.337-29.156
			c1.577-9.306,27.2-22.958,27.2-22.958s37.449-2.615,45.333,0c7.884,2.615,24.708-3.042,24.969,4.517
			c0.26,7.559,11.298,23.327,12.875,28.057c1.577,4.73,7.884,11.363,7.884,11.363l12.614-25.413l9.461-14.302h31.536l7.884,14.465
			l6.307,6.8c0,0,3.154,8.669,12.615,8.669c9.461,0-11.038,4.729,9.461-0.002c20.499-4.73,23.652-4.731,34.69-8.673
			s22.075-1.789,29.959-6.808c7.884-5.019,7.884,5.019,17.345,0c9.461-5.019,11.038,5.019,22.075,0s-3.154-11.326,11.038-5.019
			s6.947,4.73,22.395,11.826c15.448,7.096,45.407,18.458,45.407,18.458s11.038-5.055,29.171-11.363s-3.351-6.617,33.408-9.616
			c36.759-2.999,63.565-5.575,77.756-4.287s14.191,1.288,14.191,1.288s63.072-23.002,72.533-15.443
			c9.461,7.559,38.027,17.02,46.607,20.962c8.581,3.942,22.772,7.096,33.809,10.249c11.038,3.154,43.167,11.688,50.754,8.209
			c7.587-3.479,24.827,3.479,32.816,0c0.132-0.058,0.27-0.102,0.406-0.152c38.886,9.526,135.152,13.225,139.148,188.937
			c0.049,2.169,26.757,51.414,26.804,53.5l24.696-38.5l21-32l-21.5-35v-25.5c0,0,7-19,7-23s0-40,5-44s19-36,19-36l38.889-29.263
			c0,0,44.111-51.737,45.111-55.737S2043.531-37.147,2043.531-37.147z"/>
		<polygon fill="#5B453A" points="46,279.502 45.609,274.536 37.863,302.502 		"/>
	</g>
	<polygon fill="#F0925A" points="1580.375,153.466 1580.375,886.729 1606.625,911.002 1612,143.051 	"/>
</g>
<g id="Layer_9">
</g>
<g id="Layer_3">
	<path fill="#42332A" d="M2031.017,1128.641c0,0,30.928-56.055,1.624-48.489c2.126-54.333-30.159-83.157-34.975-91.65
		c-6.001-10.582-20.667-77.5-20.667-77.5l-46-53.833l-37.333,41.333l-31.333,38.667l-22,31.333l-19.421,20.616l-18.002,35.27
		l-3.707-6.864l-44.298-82.018L1737,1032.148v37.739l-12.049,37.754l-60.237,21.089c0,0-23.819,4.262-32.82,2.146
		c-9.001-2.116-65.894-15.373-65.894-15.373h-75.12l-13.88,13.286v10.714c0,0-52.127,0-63,0s-19.13-10.692-19.13-10.692
		l-12.464-21.184L1332,1075.177v36.681c0,0-15.07,23.191-30.071,33.774c-15.002,10.582-0.068,0-24.071,8.551
		s-39.004,12.613-50.329,17.364c-11.325,4.751-63.682,7.948-81.684,12.263c-18.002,4.315-51.005-14.897-66.007-12.263
		c-15.001,2.634-53.257-13.369-54.005-30.148c-0.748-16.779-34.567-26.014-34.567-26.014L965,1100.572v-68.424l-26.725,23.998
		l-55.835,38.27c0,0-57.626,0.56-72.625,0.568c-14.999,0.009-90.814,20.518-90.814,20.518h-23.2l-23.302-40.266l-140.728,66.671
		c-87.976-98.881-79.586-276.521-79.586-276.521c-53.529,12.341-92.665,161.511-108.653,234l-1.506,0.859l-35.248-30.358
		L288,1032.148v-17.734c0,0-24.123,42.329-33.124,48.678c-9.001,6.349-0.12,27.514-0.12,27.514s-21.002,16.931-24.002,24.781
		c-3,7.849-39.004,26.014-39.004,26.014l-10.793-26.014c0,0,10.793-29.013,10.793-40.208s-28.25-33.25-28.25-33.25l-12.917-17.539
		l-30.84-42.324L84,958.08c0,0,0-17.742,0-22.573c0-4.831-28.904-31.138-28.904-31.138s-25.319-33.853-19.528-37.68
		c5.791-3.827-26.749-49.064-27.695-58.409c-0.947-9.345-13.753-51.498-13.753-51.498l-22.767,37.094l-33.783,81.982L-45,1020.328
		c3.591,143.728,14.491,255.572,23,399.09c44.177,37.05,116.748,19.271,169.062,18.335c330.866-5.919,662.012-0.818,992.327,19.813
		c221.654,13.845,548.732,102.425,759.133,0.879c80.826-39.009,106.652,72.982,187.478,33.973L2031.017,1128.641z"/>
	<path fill="#42332A" d="M-268.366,88.476c-34.858,46.261-9.088,201.088-1.533,269.419c5.004,45.26,162.572,96.77,201.899,115.824
		c0.092-53.68,13.3-91.037,43.012-134.453c26.776-39.126,13.55-82.832,43.16-119.841c20.087,37.223,40.205,74.429,60.312,111.641
		c10.44-56.285,9.473-127.842,26.432-181.085c26.007-81.647,132.032-63.585,199.472-48.085c31.402,7.217,66.618,2.606,98.709,2.606
		c25.256,0,18.133-30,35.272-30c87.804,0,101.435,35.972,171.631,81.128C589.113,45.864,793.011,1.255,870.852,21.5
		c65.609,17.063,123.061,32.147,166.974,83.626c34.577,40.535,33.174,38.787,33.174,104.553
		c68-136.793,108.34-79.117,194.602-79.166c35.429-0.02,80.835-32.014,114.023-26.01c34.772,6.291,36.772,46.308,58.41,50.816
		c65.067,13.555,117.291-59.522,196.965-29.816c102.951,38.385,140-14,99.765,193.582c92.422-21.309,78.235-230.034,118.368-194.955
		c37.427,24.674,82.104,51.737,81.868,97.825c31.972-62.038,37.639-119.842,106.953-149.504c16.9,24.784,10.455,37.852,3.472,63.836
		c-9.515,35.404,16.522,36.192,31.958,61.108c24.031,38.791,51.17,72.419,88.878,97.508c15.112,10.055,56.081,83.23,68.919,108.198
		c23.626,45.948,42.563,101.294,54.994,152.459c56.551-79.414,71.303-147.014,60.046-240.301
		c-23.616-195.706-28.169-395.143-39.842-592.019c-66.219-55.536-188.196-23.312-266.566-22.14
		c-126.496,1.893-253.013,2.481-379.521,1.605c-271.079-1.878-542.138-10.483-812.706-27.383
		c-189.85-11.858-376.709-52.509-567.028-60.225c-93.865-3.806-189.465-0.729-281.07,21.834
		c-86.249,21.243-141.228,72.025-223.173,15.95c-149.25-102.132-107.258,48.032-93.433,139.504
		C-298.201-108.919-283.284-10.221-268.366,88.476z"/>
</g>
<g id="Layer_11">
</g>
</svg>
