<?xml version="1.0" encoding="utf-8"?>
<!-- Generator: Adobe Illustrator 17.0.0, SVG Export Plug-In . SVG Version: 6.00 Build 0)  -->
<!DOCTYPE svg PUBLIC "-//W3C//DTD SVG 1.1//EN" "http://www.w3.org/Graphics/SVG/1.1/DTD/svg11.dtd">
<svg version="1.1" id="Layer_1" xmlns="http://www.w3.org/2000/svg" xmlns:xlink="http://www.w3.org/1999/xlink" x="0px" y="0px"
	 width="1920px" height="1080px" viewBox="0 0 1920 1080" enable-background="new 0 0 1920 1080" xml:space="preserve">
<path fill="#313D2C" d="M-5,1081C-5,721-5,360-5,0c640,0,1286,0,1926,0c0,360,0,720.999,0,1080.999C1281,1081,635,1081-5,1081z
	 M914.286,99.068c-0.308,0.015-0.616,0.029-0.924,0.044c-0.237,0.764-0.489,1.524-0.707,2.293
	c-16.149,57.015-47.679,104.392-90.703,144.524c-41.201,38.43-88.823,66.831-140.818,87.72
	c-28.979,11.643-59.047,20.544-88.355,31.407c-95.012,35.215-171.248,94-223.289,181.748
	c-40.2,67.782-59.344,140.794-48.515,219.993c5.73,41.908,20.733,80.316,48.133,112.891c27.442,32.625,62.043,56.718,98.321,78.477
	c3.23,1.937,6.959,3.208,10.61,4.244c8.958,2.541,14.609-0.402,17.255-9.378c1.491-5.06,2.507-10.409,2.727-15.669
	c0.81-19.297,1.237-38.61,1.733-57.919c0.793-30.861,4.04-61.432,10.272-91.691c10.059-48.841,28.956-94.333,52.103-138.225
	c1.492-2.829,3.512-5.379,5.385-8.208c0.661,0.755,0.853,0.873,0.847,0.981c-1.567,28.501-0.854,56.894,3.451,85.172
	c5.997,39.394,17.701,76.695,38.701,110.9c17.339,28.242,27.328,58.635,22.297,92.226c-3.845,25.671-13.879,48.244-36.364,63.463
	c-0.302,0.204-0.32,0.827-0.864,2.368c31.851,0.262,60.341-9.345,87.106-24.426c45.517-25.646,71.842-64.592,78.62-117.314
	c24.144,53.269,52.408,102.562,100.231,138.354c6.881-75.162,46.437-132.241,95.742-185.488
	c7.332,35.315,16.698,68.567,30.513,100.441c10.321,23.813,22.43,46.55,41.425,64.803c17.913,17.214,38.669,25.219,63.454,17.997
	c19.225-5.602,35.128-17.027,48.672-31.254c29.662-31.156,54.539-65.924,74.792-103.893c9.05-16.966,16.44-34.601,17.178-54.274
	c0.018-0.477,0.554-0.935,1.237-2.019c0.609,2.294,1.261,3.852,1.413,5.458c2.42,25.5,5.498,50.965,6.978,76.522
	c2.19,37.815,1.017,75.597-6.012,112.956c-4.099,21.789-9.93,42.93-27.242,58.686c-1.057,0.962-1.561,2.531-2.322,3.818
	c0.344,0.409,0.689,0.818,1.033,1.227c3.433-1.428,7.016-2.577,10.275-4.328c25.675-13.791,48.65-31.458,70.817-50.172
	c43.799-36.978,82.743-78.303,112.201-127.868c17.949-30.201,30.864-62.28,34.927-97.482c0.606-5.254,0.884-10.545,1.314-15.819
	c3.966,10.685,7.088,21.368,9.558,32.201c9.366,41.081,15.636,82.462,10.414,124.761c-2.305,18.673-7.035,36.663-17.34,52.659
	c-4.012,6.229-9.038,11.805-13.75,17.868c0.925-0.27,1.865-0.454,2.733-0.812c19.59-8.065,37.113-19.486,53.205-33.138
	c37.246-31.599,63.367-71.158,82.344-115.758c15.997-37.597,25.629-76.929,31.808-117.206c5.391-35.14,5.925-70.315,0.906-105.521
	c-6.489-45.515-20.55-88.755-39.95-130.3c-33.139-70.971-77.969-134.087-131.008-191.344
	c-27.493-29.679-56.648-57.822-85.162-86.549c-2.591-2.611-5.989-4.421-9.822-7.189c-9.421,48.678-1.865,95.123,9.111,142.117
	c-1.899-1.281-3.259-2.119-4.534-3.071c-11.346-8.468-20.549-18.94-28.469-30.594c-14.555-21.416-24.296-45.061-31.797-69.671
	c-16.969-55.674-23.298-112.99-25.785-170.857c-0.376-8.739-0.052-17.509-0.052-27.594c-2.812,1.99-4.422,3.04-5.936,4.213
	c-19.635,15.216-34.058,34.526-44.517,56.911c-15.575,33.336-21.212,68.865-22.595,105.215c-1.507,39.627,2.7,78.825,10.166,117.697
	c2.182,11.36,4.846,22.627,7.479,34.817c-1.596-1.703-2.714-2.682-3.578-3.849c-15.651-21.143-32.173-41.711-46.706-63.599
	c-27.546-41.484-49.245-85.728-57.024-135.615c-4.296-27.546-3.489-54.878,6.682-81.18c3.734-9.655,9.177-18.648,13.821-27.903
	c0.133,0.029-0.328-0.177-0.772-0.145c-1.159,0.084-2.32,0.217-3.462,0.426c-20.496,3.755-37.027,14.444-50.945,29.491
	c-18.863,20.394-31.166,44.707-40.99,70.348c-22.514,58.76-32.655,120.304-39.948,182.384c-4.04,34.389-6.843,68.923-10.301,103.382
	c-0.4,3.989-1.427,7.916-2.213,12.133c-1.133-0.594-1.493-0.682-1.701-0.91c-0.898-0.983-1.768-1.992-2.618-3.017
	c-15.42-18.61-22.671-40.85-28.047-63.837c-7.265-31.064-10.319-62.697-12.399-94.468c-2.355-35.968-1.134-71.858,0.761-107.808
	c1.163-22.072,0.472-44.246,0.405-66.374C915.896,106.803,914.853,102.936,914.286,99.068z"/>
</svg>
