<svg id="penScreen" version="1.2" baseProfile="tiny" xmlns="http://www.w3.org/2000/svg" xmlns:xlink="http://www.w3.org/1999/xlink" x="0px" y="0px" width="344.667px" height="327.333px" viewBox="0 0 344.667 327.333" overflow="scroll" xml:space="preserve" class="skrollable skrollable-after" style="stroke-dashoffset: 0px; stroke-dasharray: 881.176px;">
				<g>
					<path class="path" fill="none" stroke="#FFFFFF" stroke-width="2" stroke-miterlimit="20" d="M220,198v112.606c0,1.875-1.52,3.394-3.394,3.394
						H18.394C16.52,314,15,312.48,15,310.606V27.394C15,25.52,16.52,24,18.394,24h198.212c1.875,0,3.394,1.52,3.394,3.394V95"></path>
					<rect class="path" x="38" y="43" fill="none" stroke="#9BCE53" stroke-width="2" stroke-miterlimit="20" width="159" height="50"></rect>
					<polyline class="path" fill="none" stroke="#9BCE53" stroke-width="2" stroke-miterlimit="20" points="197,220 197,295 38,295 38,220 95,220"></polyline>
					<rect class="path" x="38" y="111" fill="none" stroke="#9BCE53" stroke-width="2" stroke-miterlimit="20" width="42" height="45"></rect>
					<rect class="path" x="96" y="111" fill="none" stroke="#9BCE53" stroke-width="2" stroke-miterlimit="20" width="43" height="45"></rect>
					<polyline class="path" fill="none" stroke="#9BCE53" stroke-width="2" stroke-miterlimit="20" points="159,156 155,156 155,111 197,111 197,118 "></polyline>
					<line class="path" fill="none" stroke="#9BCE53" stroke-width="2" stroke-miterlimit="20" x1="37" y1="170" x2="145" y2="170"></line>
					<line class="path" fill="none" stroke="#9BCE53" stroke-width="2" stroke-miterlimit="20" x1="37" y1="182" x2="132" y2="182"></line>
					<line class="path" fill="none" stroke="#9BCE53" stroke-width="2" stroke-miterlimit="20" x1="37" y1="194" x2="121" y2="194"></line>
					<line class="path" fill="none" stroke="#9BCE53" stroke-width="2" stroke-miterlimit="20" x1="37" y1="206" x2="110" y2="206"></line>
					<path class="path" fill="#FFFFFF" stroke="#ffffff" stroke-width="3" stroke-miterlimit="20" d="M191.16,211.786"></path>
					<polygon class="path" fill="none" stroke="#FFFFFF" stroke-width="3" stroke-miterlimit="20" points="146.877,271.181 79.824,286.889 
						95.383,219.388 249.159,65.612 301.101,117.554 146.877,271.181 	"></polygon>
					<polyline class="path" fill="none" stroke="#FFFFFF" stroke-width="2" stroke-miterlimit="20" points="95.084,219.09 132.401,208.042 
						130.112,234.914 156.88,232.521 147.026,271.032 	"></polyline>
					<line class="path" fill="none" stroke="#FFFFFF" stroke-width="2" stroke-miterlimit="20" x1="261.995" y1="77.851" x2="132.401" y2="208.042"></line>
					<line class="path" fill="none" stroke="#FFFFFF" stroke-width="2" stroke-miterlimit="20" x1="287.668" y1="103.524" x2="156.88" y2="232.521"></line>
					<path class="path" fill="none" stroke="#FFFFFF" stroke-width="3" stroke-miterlimit="20" d="M301.997,116.659l21.195-21.195
						c1.319-1.319,1.319-3.457,0-4.776l-47.166-47.166c-1.319-1.319-3.457-1.319-4.776,0l-21.195,21.195"></path>
					<path class="path" fill="none" stroke="#FFFFFF" stroke-width="2" stroke-miterlimit="20" d="M89.209,246.172c0,0-9.745,40.379,28.385,31.869"></path>
					<path class="path" fill="none" stroke="#FFFFFF" stroke-width="2" stroke-miterlimit="20" d="M220,198.342"></path>
				</g>
				<g>
					<line class="path" fill="none" stroke="#9BCE53" stroke-width="2" stroke-miterlimit="20" x1="44" y1="86" x2="59" y2="86"></line>
					<line class="path" fill="none" stroke="#9BCE53" stroke-width="2" stroke-miterlimit="20" x1="65" y1="86" x2="80" y2="86"></line>
					<line class="path" fill="none" stroke="#9BCE53" stroke-width="2" stroke-miterlimit="20" x1="87" y1="86" x2="102" y2="86"></line>
				</g>
				</svg>