<svg version="1.2" baseProfile="tiny" xmlns="http://www.w3.org/2000/svg" xmlns:xlink="http://www.w3.org/1999/xlink" x="0px" y="0px" width="344.667px" height="327.333px" viewBox="0 0 344.667 327.333" overflow="scroll" xml:space="preserve" class="skrollable skrollable-after" style="stroke-dashoffset: 0px; stroke-dasharray: 881.176px;">
					<g>
						<polyline fill="none" stroke="#9BCE53" stroke-width="2" stroke-miterlimit="20" points="105.804,189.162 57.495,189.162 
							57.495,89.227 292.237,89.227 292.237,189.162 237.124,189.162 	"></polyline>
						<polyline fill="none" stroke="#9BCE53" stroke-width="2" stroke-miterlimit="20" points="135.062,208.403 126.727,208.403 
							126.727,155.907 216.031,155.907 216.031,208.403 207.186,208.403 	"></polyline>
						<polyline fill="none" stroke="#9BCE53" stroke-width="2" stroke-miterlimit="20" points="135.062,263.412 126.727,263.412 
							126.727,219.186 135.062,219.186 	"></polyline>
						<polyline fill="none" stroke="#9BCE53" stroke-width="2" stroke-miterlimit="20" points="207.696,219.186 216.031,219.186 
							216.031,263.412 207.696,263.412 	"></polyline>
						<g>
							<path fill="none" stroke="#FFFFFF" stroke-width="2" stroke-miterlimit="20" d="M207,297.565c0,6.315-5.119,11.435-11.435,11.435
								h-49.131c-6.315,0-11.435-5.119-11.435-11.435V180.435c0-6.315,5.119-11.435,11.435-11.435h49.131
								c6.315,0,11.435,5.119,11.435,11.435V297.565z"></path>
							<rect x="140" y="189" fill="none" stroke="#FFFFFF" stroke-width="2" stroke-miterlimit="20" width="62" height="93"></rect>
							<path fill="none" stroke="#FFFFFF" stroke-width="2" stroke-miterlimit="20" d="M182,177.809c0,0.658-0.533,1.191-1.191,1.191
								h-17.618c-0.658,0-1.191-0.533-1.191-1.191v-0.618c0-0.658,0.533-1.191,1.191-1.191h17.618c0.658,0,1.191,0.533,1.191,1.191
								V177.809z"></path>
						</g>
						<g>
							<path fill="none" stroke="#FFFFFF" stroke-width="2" stroke-miterlimit="20" d="M135,286h-16.608
								c-6.764,0-12.392-5.958-12.392-12.722V121.546c0-6.764,5.628-11.546,12.392-11.546h106.825c6.764,0,11.784,4.782,11.784,11.546
								v151.732c0,6.764-5.19,12.722-11.954,12.722H207"></path>
							<polyline fill="none" stroke="#FFFFFF" stroke-width="2" stroke-miterlimit="20" points="135,272 121,272 121,125 224,125 
								224,272 207,272 		"></polyline>
						</g>
						<path fill="none" stroke="#FFFFFF" stroke-width="2" stroke-miterlimit="20" d="M106,230H45.588C38.824,230,33,224.249,33,217.485
							V56.907C33,50.143,38.824,45,45.588,45h258.557C310.908,45,316,50.143,316,56.907v160.577c0,6.764-5.458,12.247-12.222,12.247
							l-66.314,0.474"></path>
						<path fill="none" stroke="#FFFFFF" stroke-width="2" stroke-miterlimit="20" d="M237.464,203.876"></path>
						<polyline fill="none" stroke="#FFFFFF" stroke-width="2" stroke-miterlimit="20" points="106,204 45,204 45,57 304,57 304,203.536 
							237.149,203.938 	"></polyline>
						<polyline fill="none" stroke="#FFFFFF" stroke-width="2" stroke-miterlimit="20" points="237,255 267,255 267,263 237,263 	"></polyline>
						<polyline fill="none" stroke="#FFFFFF" stroke-width="2" stroke-miterlimit="20" points="106,255 83,255 83,263 106,263 	"></polyline>
						
							<rect x="169.423" y="134.134" fill="none" stroke="#9BCE53" stroke-width="2" stroke-miterlimit="20" width="46.608" height="12.247"></rect>
						
							<rect x="144.418" y="194.01" fill="none" stroke="#9BCE53" stroke-width="2" stroke-miterlimit="20" width="33.68" height="12.247"></rect>
						<line fill="none" stroke="#9BCE53" stroke-width="2" stroke-miterlimit="20" x1="211" y1="141" x2="202" y2="141"></line>
						<line fill="none" stroke="#9BCE53" stroke-width="2" stroke-miterlimit="20" x1="197" y1="141" x2="188" y2="141"></line>
						<line fill="none" stroke="#9BCE53" stroke-width="2" stroke-miterlimit="20" x1="184" y1="141" x2="175" y2="141"></line>
						
							<rect x="245.629" y="68.814" fill="none" stroke="#9BCE53" stroke-width="2" stroke-miterlimit="20" width="46.608" height="12.247"></rect>
						<line fill="none" stroke="#9BCE53" stroke-width="2" stroke-miterlimit="20" x1="287" y1="76" x2="278" y2="76"></line>
						<line fill="none" stroke="#9BCE53" stroke-width="2" stroke-miterlimit="20" x1="273" y1="76" x2="264" y2="76"></line>
						<line fill="none" stroke="#9BCE53" stroke-width="2" stroke-miterlimit="20" x1="260" y1="76" x2="251" y2="76"></line>
						<rect x="186" y="194.01" fill="none" stroke="#9BCE53" stroke-width="2" stroke-miterlimit="20" width="12" height="12.247"></rect>
						<line fill="none" stroke="#9BCE53" stroke-width="2" stroke-miterlimit="20" x1="196" y1="203" x2="188" y2="203"></line>
						<line fill="none" stroke="#9BCE53" stroke-width="2" stroke-miterlimit="20" x1="196" y1="200" x2="188" y2="200"></line>
						<line fill="none" stroke="#9BCE53" stroke-width="2" stroke-miterlimit="20" x1="196" y1="197" x2="188" y2="197"></line>
						<line fill="none" stroke="#9BCE53" stroke-width="2" stroke-miterlimit="20" x1="144.418" y1="194.01" x2="178.098" y2="206.258"></line>
						<line fill="none" stroke="#9BCE53" stroke-width="2" stroke-miterlimit="20" x1="144.418" y1="206.258" x2="178.098" y2="194.01"></line>
						
							<rect x="126.727" y="134.134" fill="none" stroke="#9BCE53" stroke-width="2" stroke-miterlimit="20" width="33.68" height="12.247"></rect>
						
							<line fill="none" stroke="#9BCE53" stroke-width="2" stroke-miterlimit="20" x1="126.727" y1="134.134" x2="160.407" y2="146.381"></line>
						
							<line fill="none" stroke="#9BCE53" stroke-width="2" stroke-miterlimit="20" x1="126.727" y1="146.381" x2="160.407" y2="134.134"></line>
						
							<rect x="57.325" y="68.814" fill="none" stroke="#9BCE53" stroke-width="2" stroke-miterlimit="20" width="33.68" height="12.247"></rect>
						<line fill="none" stroke="#9BCE53" stroke-width="2" stroke-miterlimit="20" x1="57.325" y1="68.814" x2="91.005" y2="81.062"></line>
						<line fill="none" stroke="#9BCE53" stroke-width="2" stroke-miterlimit="20" x1="57.325" y1="81.062" x2="91.005" y2="68.814"></line>
						<rect x="145" y="212" fill="none" stroke="#9BCE53" stroke-width="2" stroke-miterlimit="20" width="53" height="27"></rect>
						<rect x="145" y="244" fill="none" stroke="#9BCE53" stroke-width="2" stroke-miterlimit="20" width="53" height="28"></rect>
					</g>
					</svg>