<?xml version="1.0" encoding="utf-8"?>
<!-- Generator: Adobe Illustrator 17.0.0, SVG Export Plug-In . SVG Version: 6.00 Build 0)  -->
<!DOCTYPE svg PUBLIC "-//W3C//DTD SVG 1.1//EN" "http://www.w3.org/Graphics/SVG/1.1/DTD/svg11.dtd">
<svg version="1.1" id="Layer_1" xmlns="http://www.w3.org/2000/svg" xmlns:xlink="http://www.w3.org/1999/xlink" x="0px" y="0px"
	 width="1920px" height="922.5px" viewBox="0 0 1920 922.5" enable-background="new 0 0 1920 922.5" xml:space="preserve">
<g id="Layer_6">
	<path fill="#313D2C" d="M851,16"/>
</g>
<path fill="#313D2C" d="M1920,27.75v-36H0v36v4V923h1921V27.75H1920z M1715.931,879.984
	c-79.278-22.725-164.672-36.297-239.432-71.593c-48.608-22.949-82.188-34.328-139.193-37.491
	c-33.908-1.881-66.192-9.017-99.588-15.409c-20.166-3.86-13.926-25.494-18.888-26.234c-22.208-3.311-44.416-6.622-66.624-9.933
	c-32.238-4.806-64.317-8.637-96.73-12.212c-35.957-3.966-79.45-17.231-114.845-7.242c-43.118,12.17-76.485,31.746-119.771,18.203
	c-58.213-18.212-146.43-32.877-207.252-16.218c-35.664,9.768-74.761,45.179-106.42,64.311
	c-27.089,16.371-58.381,26.825-86.093,42.707c-33.073,18.955-54.425,53.021-91.231,53.021c-35.237,0-77.319,3.724-110.69,14.513
	c-21.632,6.994-49.213,7.411-76.003,6.968c7.71-22.338,17.08-46.456,17.08-46.456s-13.75-24.248,55-71.533
	c68.75-47.284,28.75-128.516,55-146.703c14.71-10.191,52.972-140.838,108.406-257.969c-2.754,8.305-7.346,29.105-2.749,31.731
	c5.093,2.91,4.031,42.677,3.562,48.497c-0.469,5.82,7.805-28.128,0.668-55.286c0,0,4.969-20.709,4.238-36.849
	c6.655-13.647,13.545-27.045,20.658-39.975c2.313,48.886,6.337,118.802,8.492,126.42c3.242,11.465,5.941,74.475,3.736-9.308
	c-0.815-30.966-0.902-83.135-0.693-137.31c2.758-4.641,5.547-9.198,8.365-13.663c-0.423,38.67-0.992,75.916-1.635,88.468
	c-0.493,9.625,6.984,162.193,10.227,173.657c3.242,11.465,5.941,74.476,3.736-9.308c-1.531-58.19-0.492-191.252,0.247-271.799
	c30.403-43.594,64.026-75.089,100.242-81.298c0,0,1.14-0.646,3.322-1.777c-4.44,9.358-14.64,24.605-14.64,24.605
	c-23.432,36.279-7.194,55.972-6.138,57.264c1.056,1.292,6.137-0.146,2.268,21.152c-3.87,21.297-13.063,20.001-13.063,20.001
	c-4.059,6.517-2.167,28.607-10.827,39.195c-8.66,10.588-3.861,27.663-3.861,27.663c-9.025,10.699-3.305,15.404-5.1,19.332
	c-1.795,3.928,7.054,20.426,7.054,20.426c-1.392,3.352,6.654,22.442,8.728,27.59c-1.414-4.559-5.277-19.704-5.666-20.3
	c-0.448-0.687-1.476-17.743-3.909-21.334s1.014-10.924-0.686-14.229c-1.699-3.306,4.464-7.763,3.527-10.441
	s2.603-16.914,1.914-18.752c-0.688-1.837,10.047-31.117,10.25-28.726c0.152,1.791,8.752,9.366,13.75,12.648l0.897,0.592
	c1.652,1.09,5.865,4.024,8.687,8.441c0.031,0.051,0.063,0.104,0.094,0.155c0.21,0.335,0.416,0.674,0.611,1.025
	c0.002,0.003,0.004,0.006,0.005,0.009c0.34,0.614,0.61,1.075,0.823,1.41c0.559,0.971,0.91,1.604,0.91,1.604s0.195,8.77-0.158,10.679
	c-0.527,2.852,7.3,10.772,8.253,11.556c0.953,0.784,10.617,6.42,12.702,5.91c2.085-0.51-5.228-7.711-8.399-7.458
	c-3.171,0.253-7.101-18.023-7.101-18.023s14.694-1.42,22.891,9.709c2.969,4.03,5.384,9.845,6.702,10.838
	c3.167-19.11-29.283-24.425-27.593-26.72c1.75-2.376-2.061-5.855-12.113-9.354c-10.052-3.499-16.778-23.661-11.385-29.081
	c5.393-5.42,13.396-39.207,8.091-47.385c-5.306-8.178-6.019-29.056,11.409-45.244c17.428-16.187,14,13.094,14,13.094
	s21.224,11.05,28.238,14.275c7.013,3.225,3.762,17.247,3.762,17.247c-10.186,11.652,11.896,29.33,11.896,29.33
	c-4.718,5.021,3.709,18.629,3.929,19.127s-4.726,13.28,1.23,16.59s9.087,0.479,2.57-1.065s1.688-13.554-3.883-20.679
	c-5.571-7.125-1.662-11.222,4.287-14.277c5.949-3.055,12.751,6.036,12.855,5.168s-0.937-2.678-1.654-4.857
	s-12.37-5.723-13.986-3.873c-1.616,1.85-3.113,0.937-10.69-11.017c-7.577-11.954,6.675-9.135,6.675-9.135s22.033,2.542,22.883,4.195
	s-0.578,4.072,2.389,16.05s28.078,21.087,28.078,21.087c-4.755,12.939,9.654,19.702,9.654,19.702
	c-1.991,2.83-3.877,14.933,6.466,21.849c10.342,6.917,4.17-1.021,4.17-1.021c-6.869-1.516-6.126-9.489-8.34-12.581
	c-2.213-3.092-1.164-9.541,8.639-6.884c9.804,2.659,2.761-0.909,2.761-0.909c-3.623-2.98-7.296-0.277-9.012-1.69
	c-1.717-1.41-10.77-10.734-3.917-21.948c6.853-11.213,10.185-6.595,13.916-8.613s6.778,4.62,6.778,4.62
	c12.444,4.512,6.989-1.246,6.989-1.246c-2.409,0.881-5.575-2.756-7.685-6.716c-0.444-0.834,0.606-1.625,2.551-2.595h-0.007
	c0.012-0.97,0.023-0.25,0.035-0.255c1.762-0.918,4.253-1.982,7.064-2.868c12.74-4.645,20.301-5.607,24.781-4.931l-5.829-1.651
	l-5.389,1.275l-5.903,1.496l-4.067,0.151l-3.465,0.964h-4.588c0,0,0.011-0.041,0.033-0.113c-5.67,2.087-12.075,4.509-13.068,5.645
	c-1.779,2.034-6.757,3.98-15.467,7.944c-8.71,3.964-16.515-3.996-26.679-12.991s-0.671-14.59-0.671-14.59l20.611,0.419
	c0,0,4.386,3.607,15.025,6.435c10.639,2.827,8.666-3.165,4.333-1.582c-4.333,1.582-16.344-9.049-9.915-8.154
	c6.428,0.895,20.99-10.138,20.99-10.138c15.931-2.476,9.829-7.495,7.081-4.35s-11.201-0.31-14.936,5.837
	c-3.735,6.147-15.168,3.103-20.06,6.075c-4.892,2.971-36.919-2.386-52.054-3.071s-5.094-14.045-13.575-17.841
	c-8.032-3.595-25.438-20.471-26.752-21.561c0.959,0.638,9.785-1.996,14.561-0.864c4.887,1.158,28.728,2.008,32.77-2.616
	c4.042-4.624,29.735-7.018,29.735-7.018c20.064,4.42,1.737-4.612-2.301-4.117c-4.038,0.495-31.908,6.504-34.552,8.78
	c-2.645,2.276-21.652,2.646-35.563-2.437c-13.912-5.083-9.026-26.499-9.026-26.499s-0.175-5.884-0.084-13.615
	c17.939-7.763,46.579-18.374,82.526-25.595C704,126.441,711.5,98.555,754,91.281c40.997-7.018,50.595-35.467,102.835-40.735
	c1.186,12.307,1.881,24.31,1.165,31.837c-2,21.022,2.58,48.181,0.29,59.82c-2.29,11.639-0.13,55.286,2.29-11.639
	c1.045-28.902,2.012-57.438,2.773-80.539c56.754-3.393,38.272,25.46,73.147,15.795c0.232-0.064,0.459-0.122,0.69-0.185
	c0.791,24.272,0.536,48.923-3.19,56.166c0,0-1.444,28.161,1.778,34.951s8.161,22.309,5.691,28.128
	c-2.47,5.82-8.655,31.038-3.562,33.948s4.031,42.677,3.562,48.497c-0.469,5.82,7.805-28.128,0.668-55.286
	c0,0,7.3-30.391,2.915-46.234c-4.385-15.842-6.78-40.737-3.583-45.587c2.214-3.357,3.054-36.46,3.362-56.517
	c9.758-2.272,18.901-3.605,28.215-4.341l11.29,8.121c0.222,4.949,0.163,9.359-0.336,12.647c-2.5,16.489-0.08,30.553,0.46,36.858
	c0.54,6.305-0.04,16.489,0,19.884s2.54,19.399,4.04,0s0-38.312,0-38.312l0.345-27.832L996,75.869l5,16.866l15,9.699l29.586-10.563
	l25.499-15.719l55.964-3.099l-3.516-2.53c8.752,1.283,18.181,2.255,29.217,2.569c41.804,1.192,50.97,35.209,80.998,42.093
	c-1.52,34.698-2.705,73.768-1.368,91.385c2.058,27.126,0.65,125.402,0.65,125.402l2.22,42.111c0,0,1.297,26.631,2.945-4.911
	c1.648-31.542,0.515-141.07,0.515-141.07s2.806-76.11,2.564-75.895c-0.095,0.085,0.639-15.789,1.565-35.051
	c0.227,0.053,0.461,0.107,0.685,0.161c-0.538,20.641-1.115,38.573-1.523,40.16c-1,3.88,0.5,80.868,3,82.808s3-86.628,3.5-113.301
	c0.049-2.595,0.116-5.395,0.199-8.334c20.163,5.546,27.109,11.821,42.801,13.851c18.75,2.425,80,49.709,110,76.382
	c7.772,6.91,12.687,12.756,15.753,18.145c-4.477,3.449-7.989,5.992-7.989,5.992c-42.984,22.632-26.753,50.082-26.225,51.648
	c0.528,1.566,5.808,1.926-5.433,20.603c-11.241,18.676-26.596,24.848-26.596,24.848c-6.136,4.749-5.063,15.626-16.97,22.645
	c-11.907,7.018-13.509,24.649-13.509,24.649c-12.289,7.001-8.605,13.337-11.693,16.418s-0.684,21.531-0.684,21.531
	c-2.504,2.676-1.78,23.288-1.675,28.813c0.303-4.752,2.093-20.257,1.941-20.946c-0.175-0.794,4.958-17.139,3.959-21.325
	c-0.999-4.186,4.855-9.906,4.443-13.577c-0.413-3.671,6.962-5.781,7.041-8.607c0.079-2.826,8.487-14.989,8.498-16.945
	s20.546-25.809,19.881-23.498c-0.498,1.731,4.862,11.728,8.377,16.487l0.63,0.856c1.159,1.578,4.062,5.747,5.131,10.839
	c0.011,0.059,0.022,0.118,0.032,0.177c0.078,0.384,0.149,0.772,0.207,1.168c0.001,0.003,0.001,0.007,0.002,0.01
	c0.1,0.69,0.188,1.213,0.267,1.599c0.178,1.099,0.281,1.811,0.281,1.811s-2.952,8.291-3.965,9.964
	c-1.513,2.499,2.997,12.559,3.611,13.615c0.614,1.056-6.327,5.409-4.188,5.631c2.138,0.222,11.843-4.807,8.778-5.636
	c-3.065-0.829-5.135-12.781-5.135-12.781s12.774,0.25,22.918,10.292c3.574,3.538,5.408,5.741,6.289,7.115
	c-1.024-20.384-28.568-21.942-26.163-23.526c2.49-1.64,6.115-11.696-2.064-18.358c-8.178-6.662-10.337-24.69-3.341-27.959
	c6.996-3.27,29.634-35.418,27.581-44.874c-2.053-9.455-1.972-33.998,20.161-43.32c4.155-1.75,7.404-2.622,9.941-2.884
	c1.492,10.348-1.419,20.819-0.09,36.632c0.874,10.402,10.468,30.961,22.89,55.319c0.956,2.707,1.846,4.481,1.846,4.481
	c-6.22,3.124-3.179,18.721-3.151,19.262c0.028,0.541-9.18,10.867-4.776,15.975s8.352,3.504,2.792-0.135
	c-5.56-3.64,6.428-12.146,3.749-20.702c-1.886-6.025,0.108-9.055,3.778-10.627c22.69,43.92,52.036,97.297,56.622,126.206
	c5.146,32.444,45.012,52.9,69.53,71.161c0.811,3.307,1.418,6.857,1.687,10.614c0.35,4.895,0.128,10.132-0.941,15.605
	c-4.597,6.65-14.222,11.912-33.709,10.47c0,0-10.313-0.141-10.695,3.194c0,0,25.931,5.844,40.045-0.098
	c-1.599,3.536-3.6,7.129-6.068,10.755c-7.811,5.982-19.651,13.995-25.955,13.054c-9.931-1.482-10.695,5.558-13.751,8.891
	s14.897-6.299,16.043-5.558c0.553,0.358,8.351-1.817,16.038-5.651c-22.597,34.21-2.098,39.455,5.398,48.388
	c0,0-17.999-23.842-2.72-38.291c13.187-12.471,26.927-31.029,22.095-65.411c7.132,6.216,11.754,12.299,11.754,18.656
	c0,26.673,97.5,140.637,100,161.248s88.75,133.358,90,155.182c0.248,4.336,1.094,8.077,2.212,11.405
	C1763.928,890.195,1743.173,887.793,1715.931,879.984z"/>
</svg>
