<?xml version="1.0" encoding="utf-8"?>
<!-- Generator: Adobe Illustrator 17.0.0, SVG Export Plug-In . SVG Version: 6.00 Build 0)  -->
<!DOCTYPE svg PUBLIC "-//W3C//DTD SVG 1.1//EN" "http://www.w3.org/Graphics/SVG/1.1/DTD/svg11.dtd">
<svg version="1.1" id="Layer_1" xmlns="http://www.w3.org/2000/svg" xmlns:xlink="http://www.w3.org/1999/xlink" x="0px" y="0px"
	 width="1920px" height="1080px" viewBox="0 0 1920 1080" enable-background="new 0 0 1920 1080" xml:space="preserve">
<g id="Layer_9">
	<rect x="-47" y="-27.75" fill="#4B7F61" width="2015" height="978"/>
</g>
<g id="Layer_10">
</g>
<g id="Layer_8">
</g>
<g id="Layer_16">
</g>
<g id="Layer_3">
	<g id="Layer_6">
	</g>
	<g id="Layer_4">
	</g>
</g>
<g id="Layer_5">
	<path fill="#313D2C" d="M1026,1185.75c0,0,49,21.5,51,30.5s-2,28-7,35s-6.948,35,7.526,43s0.474,35,18.474,40
		c0,0-11-17.25,0-21.125s-23-27.875-18-27.875s-15-33,1-33c14.357,0,31.936,8.052,39.006,22.711c0.809,1.677,1.48,3.441,1.994,5.289
		c5,18,14,11,14,11s-7,22.75,8,21.875s19,16.125,14,26.125s-17,53-9,53s-8-18,18-53c0,0,22,22,25,38s0,21,0,25s12.667-4,1.333-36
		c-11.333-32-24.333-32-24.333-32s-11.686-27.453-23-28s2-23-4-19s-17.927-48-53.463-44c0,0,25.463-54-21.537-57.5
		S1026,1185.75,1026,1185.75z"/>
</g>
<g id="Layer_7">
</g>
<g id="Layer_12">
</g>
<g id="Layer_14">
</g>
<g id="Layer_11">
</g>
<g id="Layer_13">
	
		<image overflow="visible" opacity="0.5" enable-background="new    " width="930" height="567" xlink:href="E08E8762.jpeg"  transform="matrix(1.9988 0 0 1.9971 17.5244 -23.3709)">
	</image>
	<polygon fill="#4B7A5F" points="36.944,1047.25 429.131,1047.25 494.104,833.957 649.093,941.62 840.645,937.869 1082.415,911.4 
		1364.406,702.8 1352.533,359.813 1116.888,167.462 390.656,274.344 154.873,554.76 43.072,732.795 	"/>
	<path fill="#3F6A53" d="M1629.97,183.828c-69.417-76.295-167.429-139.315-249.667-201.062
		c-50.728-38.089-100.81-15.611-162.217-6.936C976.208,9.999,734.432,44.894,492.65,79.74
		c-60.308,8.692-101.362,88.389-139.345,131.862c-61.854,70.793-133.761,139.54-185.321,218.471
		c-44.502,68.126-122.711,145.615-124.392,229.07c-2.216,110.036-4.432,220.072-6.648,330.108c130.053,0,260.107,0,390.16,0
		c42.882,0,79.453,16.77,92.915-25.989c22.223-70.588,44.446-141.176,66.669-211.765c27.838-88.422,161.372-184.774,224.171-253.585
		c30.293-33.193,198.791-103.117,225.305-74.661c5.889-12.454,11.405-11.955,13.835-26c5.554,10.099,14.775,10.913,19,28
		c10.204-36.368,25.849-46.273,43.5-15c-5.464-55.135,58.512-29.63,62.5,12c3.068-10.736,6.135-21.473,9.203-32.209
		c56.199,14.8,126.131,84.486,127.422,125.945c1.693,54.384,31.477,97.963,25.075,159.099
		c-2.317,22.131-78.364,263.283-33.775,264.422c106.992,2.732,263.767-254,322.293-329.056
		c33.476-42.931,18.627-98.146,17.859-151.55C1642.313,405.656,1667.864,225.477,1629.97,183.828
		C1617.351,169.959,1642.589,197.698,1629.97,183.828z"/>
	<path fill="#3A5B46" d="M1753.078,90.756C1674.09,3.94,1562.346-68.313,1468.419-138.13
		c-53.575-39.824-123.838-10.365-186.972-1.435c-264.484,37.409-528.866,75.542-793.251,113.643
		c-69.074,9.954-109.98,91.188-153.963,141.52c-70.111,80.23-152.215,158.253-210.681,247.683
		C70.59,444.29-14.788,529.089-16.782,628.077c-2.425,120.391-4.85,240.782-7.274,361.173c143.691,0,287.382,0,431.073,0
		c23.705,0,94.18,14.373,102.476-11.979c25.299-80.356,50.597-160.712,75.896-241.068
		c34.726-110.299,171.177-217.381,245.59-304.834c65.965-77.525,152.663-77.637,236.022-121.119
		c2.276,15.058,12.518,31.774,13,46.293c8.859-103.746,44.663,3.727,47,43.706c9.766-55.326,48.568-147.518,66-39
		c13.838-42.494,13.402-59.088,51-50c24.867,6.011,44.579,31.941,51,53c25.294-30.877,46.362,2.625,41,36
		c89.7-31.532,54.888,288.248,81.034,297.608c-5.905,31.413-106.255,303.108,16.056,215.562
		c97.381-69.702,175.334-173.779,250.25-265.851c55.13-67.754,86.091-91.362,85.25-176.38
		c-0.764-77.269-1.878-154.548-4.251-231.787C1763.423,209.569,1775.209,115.081,1753.078,90.756
		C1739.001,75.284,1767.155,106.229,1753.078,90.756z"/>
	<path fill="#364C39" d="M2141.341,277.75c-9.001-38.397-57.006-323.425-63.006-341.427S1918.691-189.69,1875.501-195.69
		s-893.086-6.001-985.69,0s-611.028,6.001-726.854,6.001s-238.838-2.124-262.84,13.94c-10.784,7.217-11.877,57.831-9.811,111.386
		c-88.733-9.078-170.533-18.023-200.355-21.31c-7.695-0.848-11.93-1.32-11.93-1.32l54.079,769.77l75.008,610.921
		c0,0,99.01-1.239,132.013,0s1578.158,166.778,1705.226,158.553c80.22-5.193,117.324-84.256,133.78-141.849l148.374-16.704
		c0,0,119.166-162.661,135.5-182.46C2078.334,1091.438,2150.342,316.147,2141.341,277.75z M298.207,915.931l-0.294,1.26
		l-1.945,2.176C287.24,914.102,298.204,915.931,298.207,915.931z M549.542,736.221l-0.034,9.101L527,774.25h-14.733l-24-30.944
		c0,0-19.5-1.863-24,0.124s-33,10.011-33,10.011l-9.004,14.995c0,0-7.313,4.651-15.523,9.887l-0.261-3.823l-0.841,4.526
		c-8.94,5.703-18.593,11.876-20.881,13.401c-4.5,3-33.015,43.482-33.015,43.482l-19.532,42.903l-13.493,15.099
		c-5.522-7.651,0.284-67.118,0.284-67.118l-20.793,89.138L281,904.25v18l-22-12v-12l-10,12.006l2-31.369V854.25l-38.011,75.157
		l-37.904-7.404l1.978-10.316L187,895.25c0,0-3.58-16.727-3.647-16.375C183.285,879.227,198,855.25,198,855.25l-8.909-6.31
		l5.031-26.241L214,774.5l1-4.25l-2.874-18.656c5.663-13.258,11.722-26.375,18.123-39.351c2.363-4.578,17.771-18.012,20.751-20.992
		c3-3,7-14,7-14V660.42c7.7-13.354,15.708-26.548,23.994-39.563l3.063,45.632l17.201-76.585c0.605-0.888,1.219-1.766,1.826-2.653
		c8.241,0,17.334,0,18.916,0c3,0,0-11-1-14c-0.413-1.24-1.853-4.019-3.398-6.851c4.807-6.774,9.673-13.486,14.579-20.155
		c13.822-3.911,7.332-9.249,7.04-9.482c0.489-0.654,0.978-1.309,1.468-1.962c2.99-3.934,9.705-12.764,12.617-16.555
		c0.286-0.369,0.575-0.734,0.861-1.102c3.197-3.834,17.807-10.51,17.807-10.51l3.653,17.619L406,503.25v-29l27-28l7.861-6.387
		L447,484.25v-49.375l2-1.625v-22l13,3v-10l8.869-11.204l10.266,105.601l14.354-103.24L503,438.75l8-36.942l12.667,61.775
		l5.782-30.564l2.686,27.628l14.876-106.994l6.124,62.994l10.365-74.545l7.635,78.545l13.226-95.122l11.774,121.122l20.198-145.269
		L624,380.25l16.927-121.741l1.343-1.074l15.866,163.213l25.615-184.232L705,223.25h13l13.999-3.628l9.928-10.519l29.069-7.825
		l12.996-7.971l14.991-4.943l12.084-12.892l9.463-2.422l10.47,17.2l9.185,17.394l32.815-4.81V190.25l16.81-22.788l7.444-10.14
		c10.198-1.756,23.896-4.053,25.75-4.053c3,0,15.998,5.991,15.998,5.991s9.055-8.306,16.022-16.715
		c3.07-0.442,6.137-0.873,9.2-1.282L969,184.25l9.689-43.6L989,268.25l15.93-131.423c3.969-0.337,7.925-0.633,11.873-0.911
		l8.197,7.334c0,0,11,6,17,2c2.426-1.617,7.632-6.178,13.17-11.103c5.24-0.108,10.455-0.163,15.639-0.158l14.19,14.26v19
		l25.183-32.103c2.94,0.166,5.877,0.349,8.812,0.546l3.006,31.769c0,0,0,15.788,0,18.788s8,26,8,26l5.851-75.232
		c18.358,1.639,36.573,3.944,54.546,6.993L1204,157.25l21,10c0,0,14.057-0.103,22,0.212c2.773,0.11,5.435,0.412,7.985,0.665
		L1267,268.25l14.82-101.047c4.834,1.692,9.629,3.467,14.393,5.307l-5.213,8.74l28,12h6l18.327,0.623L1353,234.25l5.459-31.967
		c4.437,2.587,8.824,5.261,13.162,8.02l14.322,9.565c0.007,0.005,0.014,0.01,0.022,0.015L1388,235.25l2,6h12h11.65
		c4.308,3.66,8.55,7.425,12.716,11.309L1439,294.25l5.429-23.615c0.192,0.205,0.38,0.416,0.571,0.622v15.993v41v16l13.024-58.187
		c6.623,7.941,12.994,16.254,19.096,24.953L1470,321.25l13,19l11,10l15.11,14.931c10.056,20.021,18.809,40.504,25.555,61.212
		c0,0-8.665,5.857-6.665,11.857c1.98,5.941,13.308,11.357,14.955,18.275c0.05,0.223,0.097,0.445,0.146,0.668
		c1.437,7.12,4.555,27.641,4.879,29.779c0.007,0.069,0.014,0.138,0.021,0.207c-0.171,0.251-8.034,11.766-11.001,9.929
		c-3-1.857-8,5.143-9,13.143s10,9,10,9l-8,27l-1,12l18.473-19.098c-3.242,24.272-10.967,48.253-24.31,71.557
		c-1.734,2.746-2.706,4.592-2.73,4.639c-0.803,1.323-1.624,2.644-2.465,3.962c-5.765,9.042-11.978,17.685-18.59,25.943L1471,607.311
		l-12-27.169l-30.073,10.306L1411,607.311c0,0-30,17.417-36,21.178s-10.594,37.761-10.594,37.761l-24.277,61.209l-2.32,0.854
		l-4.296-27.988L1321,690.25l-12,24.004l-14-10.004v-50.449l-10,23.449v17l-23,16v-33.414l-35.139,50.675l-9.375,14.473
		l-8.957,1.448l-157.907-171.76l-23.563-59.392L1003,478.482v-10.559l-16-30.478v-45.356v-26.878l-48.792-10.559l-26.943-24.582
		c1.533,1.867-57.203,24.764-71.331,24.582s-21.806,37.917-21.806,37.917l-41.514,26.878l-24.724,19.198l-25.444,36.561
		l-19.785,30.633l-33.289,51.836l-24.958,21.208l-17.45,42.216l-31.716,36.648l-14.336,23.606l-25.771,45.268L549.542,736.221z"/>
	<path fill="#3A5B46" d="M909.337,328.254l1.995,1.816C910.581,329.156,909.337,328.254,909.337,328.254z"/>
	<g>
		<path fill="#52E5B7" d="M520.894,1023.618c0.381,0.17,2.227-0.865,4.929-2.573
			C522.492,1022.547,520.612,1023.492,520.894,1023.618z"/>
		<path fill="#52E5B7" d="M933,998.25C931.955,998.137,927.914,997.7,933,998.25L933,998.25z"/>
		<path fill="#52E5B7" d="M668.305,731.502c-3.555,51.619-4.129,105.13-12.533,155.814c-12.476,75.246-74.415,98.617-129.949,133.73
			c23.036-10.398,47.428-18.634,69.62-30.799c13.883-7.611,16.625-25.465,35.057-30.995c4.123-1.237,14.332,55.756,10,67
			c32.784-33.944,3.33-53.24,8.593-84.63C653.724,914,670.892,873.542,688,851.5c-10,76.5,40.908,69.303,84.875,74.799
			C816.821,931.79,863.19,945.713,907,943.25c-6.149,1.867-11.516,4.526-18,6c18,0,36,0,54,0
			c-8.528,13.497-13.327,29.953-10.986,44.188c8.924-11.906,5.221-34.538,18.486-43.563c11.616-7.902,44.752,0.617,60.5,0.414
			c-11.704,38.657,68.653,32.261,91.351,34.355c-21.45-3.923-42.901-7.846-64.351-11.769c-25.885-1.803-7.008-15.673-18-22.836
			c-12.797-8.34-19.2-1.606-37-7.539c1.817-0.79,3.65-1.54,5.5-2.25c-40.642,0-103.177,4.964-140.5-11.656
			c-36.075-16.065-112.356,4.439-139.5-30.25c-7.235-9.247-3.881-33.151-1.982-46.186c4.115-28.238-9.695-54.303-14.214-81.408
			c-4.994-29.956-20.124-63.39-18.305-93.914c1.722-28.897,17.164-57.72,22.938-86.586c6.851-34.254,18.644-59.86,37.813-89.083
			c13.872-21.147,11.747-56.227,5.562-81.694C738.5,363.5,744,296,743.761,237.067c10.653-137.466,9.516-275.002,13.793-412.817
			c-35.86-3.235-19.958,172.254-20.298,201.7c-0.663,57.323-0.327,114.808-3.905,172.05c-4.347,69.555-5.24,139.073-6.732,208.742
			c-0.571,26.655,8.533,57.684-2.107,82.512c-14.665,34.218-37.15,55.91-54.037,87.758c-13.086,24.68-19.92,58.55-19.92,86.242
			c0,22.322-14.961,37.312-26.554,58.58c-27.5,50.449-60.423,104.859-88,157.416c-9.534,18.171-9.67,44.642-39.773,43.313
			c-32.92-1.454-67.73,21.311-104.229,18.688c-31.94-2.296-71.431,9.883-102.873,17.172c-24.817,5.753-47.821,7.49-73.312,5.391
			c-3.744-0.308-49.749,6.895-52.813,8.938c3.167-2.111,61.955-1.459,69.922-1.578c30.009-0.448,58.846-5.531,88.537-9.773
			c52.371-7.482,104.557-15.397,156.041-24.024c33.504-5.614,63.879-12.572,88.5-38.617c22.346-23.639,20.945-51.405,33-80.507
			c10.316-24.903,28.446-44.035,34.25-71.313c5.331-25.054,23.653-10.743,35.304-21.685L668.305,731.502z"/>
		<path fill="#52E5B7" d="M1103.5,984.75c-5.832-1.163,10.736,2.047,9,1.75C1109.5,985.917,1106.5,985.333,1103.5,984.75z"/>
	</g>
	<g>
		<path fill="#577761" d="M892,414.25l20.332,51.59l23.168,44.998l12.45,56.997l27.638,25.499l50.997,13.978l44.998,80.518
			l25.499,20.999l67.497,7.5l44.95,27.104l-157.907-171.76l-23.563-59.393L1004,478.482v-10.559l-16-30.478v-45.356v-26.878
			l-48.792-10.559l-26.943-24.582c0.579,0.705-7.448,4.414-18.42,8.744c-4.01,11.703-5.741,23.984-1.845,34.435L892,414.25
			L892,414.25z"/>
		<path fill="#577761" d="M1209.529,743.432L1209.529,743.432L1209.529,743.432z"/>
	</g>
	<path fill="#577761" d="M1393,652.369l50.801-51.119l12-10l3.199-10.989l-30.073,10.246L1411,607.341c0,0-30,17.402-36,21.163
		c-6,3.761-10.594,37.753-10.594,37.753l-24.277,61.206L1375,686.311L1393,652.369z"/>
	<polygon fill="#364C39" points="438.77,354.464 405.271,653.801 377.273,414.297 	"/>
	<polygon fill="#364C39" points="359.274,474.669 324.776,715.946 288.778,514.956 	"/>
	<path fill="#364C39" d="M288.778,946.935"/>
	<polygon fill="#577761" points="488.45,743.181 479.092,753.188 473,759.25 473,766.25 469,766.25 471,771.917 478,777.25 
		494.333,779.583 512.267,774.25 	"/>
</g>
</svg>
