<?xml version="1.0" encoding="utf-8"?>
<!-- Generator: Adobe Illustrator 17.0.0, SVG Export Plug-In . SVG Version: 6.00 Build 0)  -->
<!DOCTYPE svg PUBLIC "-//W3C//DTD SVG 1.1//EN" "http://www.w3.org/Graphics/SVG/1.1/DTD/svg11.dtd">
<svg version="1.1" id="Layer_1" xmlns="http://www.w3.org/2000/svg" xmlns:xlink="http://www.w3.org/1999/xlink" x="0px" y="0px"
	 width="1920px" height="1080px" viewBox="0 0 1920 1080" enable-background="new 0 0 1920 1080" xml:space="preserve">
<g>
	<g>
		<path fill="none" stroke="#000000" stroke-width="2" stroke-miterlimit="10" d="M732.232,758.403c0,0-48.667,134,75.333,196
			c0,0-28-108.667-56.667-157.333c0,0,52.667,75.333,70.667,157.333C821.565,954.403,876.232,815.737,732.232,758.403z"/>
		<path fill="none" stroke="#000000" stroke-width="2" stroke-miterlimit="10" d="M633.776,703.818
			c0,0-53.709,116.509,52.831,181.423c0,0-16.945-99.551-38.996-145.346c0,0,41.57,71.512,51.551,146.398
			C699.161,886.293,758.601,766.05,633.776,703.818z"/>
		<path fill="none" stroke="#000000" stroke-width="2" stroke-miterlimit="10" d="M574.763,588.07c0,0-87.246,94.06-6.143,188.859
			c0,0,14.819-99.89,8.086-150.27c0,0,17.297,80.888,3.521,155.169C580.226,781.829,674.08,686,574.763,588.07z"/>
		<path fill="none" stroke="#000000" stroke-width="2" stroke-miterlimit="10" d="M543.097,479.195
			c0,0-91.127,55.356-41.963,151.453c0,0,31.846-77.346,36.057-119.744c0,0-1.349,69.619-27.33,126.479
			C509.86,637.383,606.844,582.171,543.097,479.195z"/>
		<path fill="none" stroke="#000000" stroke-width="2" stroke-miterlimit="10" d="M552.883,368.323
			c0,0-91.994,22.447-76.122,116.989c0,0,47.694-56.954,62.622-91.724c0,0-19.801,58.585-57.039,99.766
			C482.345,493.354,579.259,472.598,552.883,368.323z"/>
		<path fill="none" stroke="#000000" stroke-width="2" stroke-miterlimit="10" d="M597.045,271.681c0,0-84.226-4.285-94.772,80.441
			c0,0,55.214-36.451,76.813-62.32c0,0-31.826,44.95-74.097,70.605C504.989,360.407,592.984,367.389,597.045,271.681z"/>
		<path fill="none" stroke="#000000" stroke-width="2" stroke-miterlimit="10" d="M640.009,210.148c0,0-69.724-24.58-101.019,40.683
			c0,0,56.098-15.355,81.115-30.667c0,0-38.671,28.039-81.023,37.989C539.083,258.153,611.264,285.841,640.009,210.148z"/>
		<path fill="none" stroke="#000000" stroke-width="2" stroke-miterlimit="10" d="M698.009,143.148c0,0-69.724-24.58-101.019,40.683
			c0,0,56.098-15.355,81.115-30.667c0,0-38.671,28.039-81.023,37.989C597.083,191.153,669.264,218.841,698.009,143.148z"/>
		<path fill="none" stroke="#000000" stroke-width="2" stroke-miterlimit="10" d="M744.113,62.531c0,0-71.329-19.438-97.788,47.93
			c0,0,54.831-19.399,78.667-36.491c0,0-36.526,30.78-78.042,43.788C646.95,117.758,720.955,140.116,744.113,62.531z"/>
		<path fill="none" stroke="#000000" stroke-width="2" stroke-miterlimit="10" d="M641.727,29.591c0,0,31.663,63.316-28.091,100.454
			c0,0,8.583-54.957,20.617-80.433c0,0-22.838,39.879-27.726,81.183C606.527,130.795,571.576,65.504,641.727,29.591z"/>
		<path fill="none" stroke="#000000" stroke-width="2" stroke-miterlimit="10" d="M581.796,75.71c0,0,38.406,74.402-35.036,118.524
			c0,0,10.855-64.801,25.756-94.89c0,0-28.228,47.125-34.471,95.816C538.044,195.161,495.62,118.453,581.796,75.71z"/>
		<path fill="none" stroke="#000000" stroke-width="2" stroke-miterlimit="10" d="M496.271,128.409c0,0,66.073,75.14-6.3,147.563
			c0,0-6.18-78.274,2.384-117.474c0,0-19.082,62.81-12.22,121.072C480.135,279.57,408.736,202.92,496.271,128.409z"/>
		<path fill="none" stroke="#000000" stroke-width="2" stroke-miterlimit="10" d="M419.378,220.828c0,0,82.505,55.918,34.157,142.87
			c0,0-27.067-73.471-29.665-113.099c0,0-0.874,64.798,21.398,118.935C445.268,369.535,357.347,313.465,419.378,220.828z"/>
		<path fill="none" stroke="#000000" stroke-width="2" stroke-miterlimit="10" d="M362.498,316.847
			c0,0,113.694,45.909,74.31,165.033c0,0-49.842-82.301-62.039-129.933c0,0,13.674,79.272,53.249,139.286
			C428.018,491.233,307.661,446.601,362.498,316.847z"/>
		<path fill="none" stroke="#000000" stroke-width="2" stroke-miterlimit="10" d="M338.449,459.739
			c0,0,117.607,22.196,104.671,142.11c0,0-64.36-68.487-85.771-111.227c0,0,29.331,72.365,79.335,121.704
			C436.685,612.325,313.004,592.578,338.449,459.739z"/>
		<path fill="none" stroke="#000000" stroke-width="2" stroke-miterlimit="10" d="M338.163,598.049
			c0,0,119.561-5.395,134.499,114.286c0,0-78.363-51.883-109.013-88.567c0,0,45.16,63.699,105.155,100.241
			C468.802,724.009,343.891,733.182,338.163,598.049z"/>
		<path fill="none" stroke="#000000" stroke-width="2" stroke-miterlimit="10" d="M375.128,732.633
			c0,0,124.627-25.339,160.003,97.843c0,0-90.803-41.571-129.017-75.037c0,0,57.891,59.439,126.887,87.927
			C533.001,843.366,403.38,873.552,375.128,732.633z"/>
		<path fill="none" stroke="#000000" stroke-width="2" stroke-miterlimit="10" d="M451.019,881.087
			c0,0,104.651-63.16,176.432,36.943c0,0-95.623-8.331-141.019-26.297c0,0,71.593,35.129,143.251,38.654
			C629.684,930.388,522.074,999.548,451.019,881.087z"/>
		<path fill="none" stroke="#000000" stroke-width="2" stroke-miterlimit="10" d="M536.614,1015.286
			c0,0,83.292-107.28,196.61-36.636c0,0-101.979,31.613-155.881,32.532c0,0,87.67,5.385,163.027-21.039
			C740.37,990.143,656.375,1104.693,536.614,1015.286z"/>
		<path fill="none" stroke="#000000" stroke-width="2" stroke-miterlimit="10" d="M640.009,120.58
			c0,0-259.095,203.665-171.231,516.72c0,0,75.222,339.77,428.222,374.77v-26c0,0-217.384-19.245-336.051-197.789
			c0,0-75.981-105.877-86.003-184.544C474.946,603.737,385.12,352.09,640.009,120.58z"/>
	</g>
	<g>
		<path fill="none" stroke="#000000" stroke-width="2" stroke-miterlimit="10" d="M1187.768,759.403c0,0,48.667,134-75.333,196
			c0,0,28-108.667,56.667-157.333c0,0-52.667,75.333-70.667,157.333C1098.435,955.403,1043.768,816.737,1187.768,759.403z"/>
		<path fill="none" stroke="#000000" stroke-width="2" stroke-miterlimit="10" d="M1286.224,704.818
			c0,0,53.709,116.509-52.831,181.423c0,0,16.945-99.551,38.996-145.346c0,0-41.57,71.512-51.551,146.398
			C1220.839,887.293,1161.399,767.05,1286.224,704.818z"/>
		<path fill="none" stroke="#000000" stroke-width="2" stroke-miterlimit="10" d="M1345.237,589.07c0,0,87.246,94.06,6.143,188.859
			c0,0-14.819-99.89-8.086-150.27c0,0-17.297,80.888-3.521,155.169C1339.774,782.829,1245.92,687,1345.237,589.07z"/>
		<path fill="none" stroke="#000000" stroke-width="2" stroke-miterlimit="10" d="M1376.903,480.195
			c0,0,91.127,55.356,41.963,151.453c0,0-31.846-77.346-36.057-119.744c0,0,1.349,69.619,27.33,126.479
			C1410.14,638.383,1313.156,583.171,1376.903,480.195z"/>
		<path fill="none" stroke="#000000" stroke-width="2" stroke-miterlimit="10" d="M1367.117,369.323
			c0,0,91.994,22.447,76.122,116.989c0,0-47.694-56.954-62.622-91.724c0,0,19.801,58.585,57.038,99.766
			C1437.655,494.354,1340.741,473.598,1367.117,369.323z"/>
		<path fill="none" stroke="#000000" stroke-width="2" stroke-miterlimit="10" d="M1322.955,272.681c0,0,84.226-4.285,94.772,80.441
			c0,0-55.214-36.451-76.813-62.32c0,0,31.826,44.95,74.097,70.605C1415.011,361.407,1327.016,368.389,1322.955,272.681z"/>
		<path fill="none" stroke="#000000" stroke-width="2" stroke-miterlimit="10" d="M1279.991,211.148
			c0,0,69.724-24.58,101.019,40.683c0,0-56.098-15.355-81.115-30.667c0,0,38.671,28.039,81.023,37.989
			C1380.917,259.153,1308.736,286.841,1279.991,211.148z"/>
		<path fill="none" stroke="#000000" stroke-width="2" stroke-miterlimit="10" d="M1221.991,144.148
			c0,0,69.724-24.58,101.019,40.683c0,0-56.098-15.355-81.115-30.667c0,0,38.671,28.039,81.023,37.989
			C1322.917,192.153,1250.736,219.841,1221.991,144.148z"/>
		<path fill="none" stroke="#000000" stroke-width="2" stroke-miterlimit="10" d="M1175.887,63.531c0,0,71.329-19.438,97.788,47.93
			c0,0-54.831-19.399-78.667-36.491c0,0,36.526,30.78,78.042,43.788C1273.05,118.758,1199.045,141.116,1175.887,63.531z"/>
		<path fill="none" stroke="#000000" stroke-width="2" stroke-miterlimit="10" d="M1278.273,30.591
			c0,0-31.662,63.316,28.091,100.454c0,0-8.583-54.957-20.617-80.433c0,0,22.838,39.879,27.726,81.183
			C1313.473,131.795,1348.424,66.504,1278.273,30.591z"/>
		<path fill="none" stroke="#000000" stroke-width="2" stroke-miterlimit="10" d="M1338.204,76.71c0,0-38.406,74.402,35.036,118.524
			c0,0-10.855-64.801-25.756-94.89c0,0,28.228,47.125,34.471,95.816C1381.956,196.161,1424.38,119.453,1338.204,76.71z"/>
		<path fill="none" stroke="#000000" stroke-width="2" stroke-miterlimit="10" d="M1423.729,129.409c0,0-66.073,75.14,6.3,147.563
			c0,0,6.179-78.274-2.384-117.474c0,0,19.082,62.81,12.22,121.072C1439.865,280.57,1511.264,203.92,1423.729,129.409z"/>
		<path fill="none" stroke="#000000" stroke-width="2" stroke-miterlimit="10" d="M1500.622,221.828
			c0,0-82.505,55.918-34.157,142.87c0,0,27.067-73.471,29.665-113.099c0,0,0.874,64.798-21.398,118.935
			C1474.733,370.535,1562.653,314.465,1500.622,221.828z"/>
		<path fill="none" stroke="#000000" stroke-width="2" stroke-miterlimit="10" d="M1557.502,317.847
			c0,0-113.694,45.909-74.31,165.033c0,0,49.842-82.301,62.039-129.933c0,0-13.674,79.272-53.249,139.286
			C1491.982,492.233,1612.339,447.601,1557.502,317.847z"/>
		<path fill="none" stroke="#000000" stroke-width="2" stroke-miterlimit="10" d="M1581.551,460.739
			c0,0-117.607,22.196-104.671,142.11c0,0,64.36-68.487,85.771-111.227c0,0-29.331,72.365-79.335,121.704
			C1483.315,613.325,1606.996,593.578,1581.551,460.739z"/>
		<path fill="none" stroke="#000000" stroke-width="2" stroke-miterlimit="10" d="M1581.837,599.049
			c0,0-119.561-5.395-134.498,114.286c0,0,78.363-51.883,109.013-88.567c0,0-45.16,63.699-105.155,100.241
			C1451.198,725.009,1576.109,734.182,1581.837,599.049z"/>
		<path fill="none" stroke="#000000" stroke-width="2" stroke-miterlimit="10" d="M1544.872,733.633
			c0,0-124.627-25.339-160.003,97.843c0,0,90.803-41.571,129.017-75.037c0,0-57.891,59.439-126.887,87.927
			C1386.999,844.366,1516.62,874.552,1544.872,733.633z"/>
		<path fill="none" stroke="#000000" stroke-width="2" stroke-miterlimit="10" d="M1468.981,882.087
			c0,0-104.651-63.16-176.432,36.943c0,0,95.623-8.331,141.019-26.297c0,0-71.593,35.129-143.251,38.654
			C1290.316,931.388,1397.926,1000.548,1468.981,882.087z"/>
		<path fill="none" stroke="#000000" stroke-width="2" stroke-miterlimit="10" d="M1383.386,1016.286
			c0,0-83.292-107.28-196.61-36.636c0,0,101.979,31.613,155.881,32.532c0,0-87.67,5.385-163.027-21.039
			C1179.63,991.143,1263.625,1105.693,1383.386,1016.286z"/>
		<path fill="none" stroke="#000000" stroke-width="2" stroke-miterlimit="10" d="M1279.991,121.58
			c0,0,259.095,203.665,171.231,516.72c0,0-75.222,339.77-428.222,374.77v-26c0,0,217.384-19.245,336.051-197.789
			c0,0,75.981-105.877,86.003-184.544C1445.054,604.737,1534.88,353.09,1279.991,121.58z"/>
	</g>
</g>
</svg>
