<?xml version="1.0" encoding="utf-8"?>
<!-- Generator: Adobe Illustrator 22.0.1, SVG Export Plug-In . SVG Version: 6.00 Build 0)  -->
<svg version="1.1" id="Layer_1" xmlns="http://www.w3.org/2000/svg" xmlns:xlink="http://www.w3.org/1999/xlink" x="0px" y="0px"
	 viewBox="0 0 749 412.5" style="enable-background:new 0 0 749 412.5;" xml:space="preserve">
<style type="text/css">
	.st0{fill:#313D2C;}
	.st1{fill:none;stroke:#FFFFFF;stroke-width:2;stroke-miterlimit:10;}
	.st2{fill:#FFFFFF;}
	.st3{fill:none;}
	.st4{font-family:'ArialMT';}
	.st5{font-size:21.0056px;}
</style>
<rect x="-6.9" y="-67.5" class="st0" width="771" height="295"/>
<path class="st1" d="M738.1,108.5h-727c-5.5,0-10-4.5-10-10V12c0-5.5,4.5-10,10-10h727c5.5,0,10,4.5,10,10v86.5
	C748.1,104,743.6,108.5,738.1,108.5z"/>
<circle class="st1" cx="729.6" cy="18" r="5.5"/>
<circle class="st1" cx="709.6" cy="18" r="5.5"/>
<circle class="st1" cx="688.6" cy="18" r="5.5"/>
<path class="st1" d="M710.1,73.5h-607c-2.8,0-5-2.3-5-5v-19c0-2.8,2.3-5,5-5h607c2.8,0,5,2.3,5,5v19
	C715.1,71.3,712.8,73.5,710.1,73.5z"/>
<path class="st2" d="M20,58.5c3.5,0,6.6,0,9.7,0c1.2,0,2.4,0,2.4,1.7s-1.1,1.7-2.3,1.7c-3.1,0-6.2,0-9.7,0c1.5,1.5,2.7,2.8,3.9,4
	c0.8,0.7,1.1,1.4,0.2,2.3s-1.6,0.8-2.5-0.1c-2.2-2.2-4.4-4.4-6.6-6.6c-0.9-0.9-0.9-1.6,0-2.5c2.3-2.2,4.5-4.5,6.8-6.8
	c0.8-0.9,1.5-0.8,2.4,0c0.9,0.9,0.6,1.6-0.2,2.3C22.7,55.7,21.6,57,20,58.5z"/>
<path class="st2" d="M52.3,58.5c-3.5,0-6.6,0-9.7,0c-1.2,0-2.4,0-2.4,1.7s1.1,1.7,2.3,1.7c3.1,0,6.2,0,9.7,0c-1.5,1.5-2.7,2.8-3.9,4
	c-0.8,0.7-1.1,1.4-0.2,2.3c0.9,0.9,1.6,0.8,2.5-0.1c2.2-2.2,4.4-4.4,6.6-6.6c0.9-0.9,0.9-1.6,0-2.5c-2.3-2.2-4.5-4.5-6.8-6.8
	c-0.8-0.9-1.5-0.8-2.4,0c-0.9,0.9-0.6,1.6,0.2,2.3C49.6,55.7,50.8,57,52.3,58.5z"/>
<polyline class="st1" points="1.6,34.5 83.1,34.5 93.1,12.5 289.1,12.5 301.1,34.5 748.1,34.5 "/>
<path class="st2" d="M83.6,51.6h-1.7c-0.2,0-0.4,0.2-0.4,0.4l0.1,2.8c-1.6-1.8-4.1-3-6.8-3c-4.9,0-8.9,3.8-8.9,8.5s4,8.5,8.9,8.5
	c2.3,0,4.4-0.8,5.9-2.2c0.2-0.2,0.2-0.4,0-0.6l-1.2-1.2c-0.2-0.2-0.4-0.2-0.6,0c-1.1,0.9-2.6,1.5-4.2,1.5c-3.5,0-6.3-2.7-6.3-6
	s2.8-6,6.3-6c2.2,0,4.1,1.1,5.2,2.7l-3.6-0.2c-0.2,0-0.4,0.2-0.4,0.4v1.6c0,0.2,0.2,0.4,0.4,0.4h7.2c0.2,0,0.4-0.2,0.4-0.4V52
	C84.1,51.7,83.9,51.6,83.6,51.6z"/>
<g>
	<line class="st3" x1="723.1" y1="51.5" x2="740.1" y2="51.5"/>
	<rect x="723.1" y="50" class="st2" width="17" height="3"/>
</g>
<g>
	<line class="st3" x1="723.1" y1="59" x2="740.1" y2="59"/>
	<rect x="723.1" y="57.5" class="st2" width="17" height="3"/>
</g>
<g>
	<line class="st3" x1="723.1" y1="66.5" x2="740.1" y2="66.5"/>
	<rect x="723.1" y="65" class="st2" width="17" height="3"/>
</g>
<image style="overflow:visible;" width="1633" height="1000" xlink:href="B1BBCE6B.jpg"  transform="matrix(0.4574 0 0 0.4574 1 90.5528)">
</image>
</svg>
