<svg id="executionSvg" version="1.2" baseProfile="tiny" xmlns="http://www.w3.org/2000/svg" xmlns:xlink="http://www.w3.org/1999/xlink" x="0px" y="0px" width="344.667px" height="327.333px" viewBox="0 0 344.667 327.333" overflow="scroll" xml:space="preserve" class="skrollable skrollable-after" style="stroke-dashoffset: 0px; stroke-dasharray: 881.176px;">
				<g>
				</g>
				<g>
					<path fill="none" stroke="#FFFFFF" stroke-width="2" stroke-miterlimit="20" d="M87.512,195.384
						c-4.207-11.611-7.442-26.021-7.442-39.084c0-60.305,48.887-109.191,109.191-109.191c30.844,0,58.701,12.789,78.558,33.354"></path>
					<path fill="none" stroke="#FFFFFF" stroke-width="2" stroke-miterlimit="20" d="M290.234,114.676
						c5.12,12.646,8.217,27.142,8.217,41.624c0,60.305-48.887,109.191-109.191,109.191c-19.881,0-40.237-6.862-56.1-15.76"></path>
					<path fill="none" stroke="#FFFFFF" stroke-width="2" stroke-miterlimit="20" d="M290.234,114.676"></path>
					<path fill="none" stroke="#FFFFFF" stroke-width="2" stroke-miterlimit="20" d="M327.523,64.514c0,0-5.583,32.881-93.346,95.99
						l-0.476,34.417l14.347-1.354c0,0-3.433,28.268-37.72,26.22c0,0,1.392-8.928,8.02-14.125c6.628-5.196-7.974-36.534-7.974-36.534
						l-8.512-1.626l-1.683-2.423l-11.948-17.203l-1.683-2.423l1.455-8.553c0,0-24.261-24.635-31.444-20.239
						c-7.183,4.396-16.024,2.563-16.024,2.563C150.59,86.381,178.3,92.996,178.3,92.996l-6.231,12.894l32.238,11.606
						c89.782-60.201,122.459-54.072,122.459-54.072L327.523,64.514z"></path>
					<circle fill="none" stroke="#9BCE53" stroke-width="2" stroke-miterlimit="20" cx="260.363" cy="110.302" r="12.908"></circle>
					<path fill="none" stroke="#9BCE53" stroke-width="2" stroke-miterlimit="20" d="M187.084,177.305l-14.199-19.524
						c0,0-72.068-11.479-99.396,64.785c-20.917,58.371-58.573,50.586-58.573,50.586S111.205,321.519,187.084,177.305z"></path>
					<path fill="none" stroke="#FFFFFF" stroke-width="2" stroke-miterlimit="20" d="M132.454,249.567"></path>
				</g>
				</svg>