<?xml version="1.0" encoding="utf-8"?>
<!-- Generator: Adobe Illustrator 17.0.0, SVG Export Plug-In . SVG Version: 6.00 Build 0)  -->
<svg version="1.2" baseProfile="tiny" id="Layer_13"
	 xmlns="http://www.w3.org/2000/svg" xmlns:xlink="http://www.w3.org/1999/xlink" x="0px" y="0px" width="1920px" height="1080px"
	 viewBox="0 0 1920 1080" xml:space="preserve">
<path fill="#313D2C" d="M-32.42-95.055c-23.56,95.361-2.155,193.207,4.965,289.082c7.338,98.813-24.762,191.347-19.141,286.5
	c5.684,96.239-2.406,190.981-5.521,287.251c-2.506,77.456-31.822,233.336-0.415,304.811
	c30.021,68.321,28.338,137.645,105.231,95.382c104.78,0,88.302,30.279,128.302,18.279l471.215-18c283.484,0,566.969,0,850.453,0
	c148.172,0,296.345,0,444.517,0c24.196,0,33.814,6.444,33.814-18.39c0-63.28,0-126.561,0-189.841
	c0-82.159,0.793-1044.769-0.298-1044.769l-2003.66-30.823 M1688.894,669.257c-25.963,40.725-59.392,74.417-97.803,102.522
	c-1.726-1.422-3.852-3.175-6.481-5.341c-13.859-11.419,0.001,0-3.082-5.488s-30.068-32.563-30.068-32.563
	s-22.449-23.933-25.938-31.378s-27.476-29.588-27.476-29.588l-13.004,12.688l-30.5,21.055c0,0,5.6,17.604,11.064,53.237
	l-44.672,9.284l-12.622,4.666l2.849,13.707c0,0-9.773,18.373-16.74,31.567l-13.394,19.636l-16.387-13.447
	c0,0-7.11-6.182-13.915-10.896c-6.805-4.714-1.802-18.01-5.291-25.456s-46.359-114.385-48.136-141.993l3.102,62.727
	c0,0-10.046,47.816-10.279,56.036c-0.234,8.219-11.695,37.157-18.153,52.798s0,0-1.281,12.523
	c-1.281,12.522-27.034,19.407-27.034,19.407s-24.095,5.518-37.226,7.737c-13.131,2.218-25.14,26.612-33.094,25.711
	c-7.954-0.9-34.498-23.028-34.498-23.028l-35.913-29.469l-0.749,49.404c0,0,6.104,29.372,8.139,39.163s-29.336-30.091-29.336-30.091
	s0,0-3.736-4.841c-3.736-4.841-7.575-12.214-11.238-29.838c-3.663-17.623-6.104-29.372-6.104-29.372l-18.44,14.046l-6.124,26.591
	c0,0-6.78,12.923-16.9,30.794c-10.121,17.871-17.524,18.452-22.629,31.259c-5.105,12.807-39.646-10.081-39.646-10.081
	s-14.984-0.524-32.578-1.464c-17.594-0.94-37.299,7.752-37.299,7.752l-31.541,7.066l-22.717,4.721l-10.787,2.242l-4.884-23.498
	c0,0-13.041-32.016-6.218-57.947c6.823-25.931-6.104-29.372-6.104-29.372l-7.825-37.652l-18.086-49.652l-14.052,46.584
	c0,0-5.462,27.691-3.834,35.523c1.628,7.833-4.25,35.61-11.567,43.259s4.969,23.91,4.969,23.91l-11.502,32.601l-27.573,26.158
	l-18.033,16.004l-16.347,3.398l-21.118-1.484l-17.342,22.815c0,0-3.375,2.455-7.524,5.402c-10.054,1.436-20.109,2.87-30.163,4.306
	c-0.91-0.37-1.445-0.614-1.445-0.614l-23.52,2.846c0,0-4.573-7.221-2.821-12.181c1.751-4.96-14.3-14.071-14.3-14.071
	s-11.514-22.567-6.504-24.112c5.01-1.545-23.165-66.562-23.165-66.562l14.155,68.107l1.017,24.748l-5.513,19.02l-11.647-9.325
	l-19.714-38.8c0,0-3.603-36.021-9.03-43.447s-2.787-13.408-2.787-13.408s-9.813-28.531-15.257-36.037
	c-5.443-7.506-26.313-14.492-26.313-14.492l9.767,46.996l-6.675,25.517l-20.878,17.248l-2.468,37.013l-6.299,30.418l-13.308,24.725
	l-16.752,3.482l-58.379-3.202l-30.087-25.395l-2.214-10.65l-29.723-21.524l-38.557,5.971l-21.058,24.804l2.035,9.791l-27.548,26.279
	l-23.045-1.948l0.881-33.911l-52.497-60.065c0,0,4.5-26.93,5.866-31.43s-2.866-49.497,0-53.997
	c2.433-3.819-14.386-35.108-19.531-54.5c15.069-37.329,31.197-74.672,48.469-111.682l20.566,128.684L189,756.837v-66.75
	l16.028-79.54l22.743-23.42l31.219-35.992l17.248,93.701l25.987-201.962l16.024,89.845l10.419-97.442l40.074-11.516l21.309-84.401
	l10.852,61.558l5.524-45.161l20.477,116.161l13.515-110.5l13.485,76.5l4.386-35.86l2.986,40.826l54.644-240.775l5.126-6.013
	c0.018-0.012,0.035-0.023,0.053-0.035l28.155,25.776l24.866,19.5l22.914-18.088h48.22l49.947-92.923l6.35-22.914
	c22.136-7.961,44.617-15.309,67.318-21.745l20.98,26.084l74.212,14.913l29.143-32.912l23.929-39.594
	c16.823-2.419,33.628-4.475,50.375-6.165l19.746,30.625l0.5,48.004l12.45,152.717l35.05-194.722l33.987-42.556
	c23.456-0.366,46.474-0.041,69.161,0.975C1178.943,44.85,1221,50.445,1265,59.823v210.015l58.267-195.193
	c32.729,9.628,65.337,21.423,96.931,35.396l29.025,46.583c0,0,17.883,72.007,20.883,81.008c3,9.001,0.008,105.206,0.008,105.206
	l26.859-171.108l7.628-17.471c12.963,7.999,25.61,16.414,37.845,25.279c0,0.01-5.681,126.498,0,135.8
	c5.682,9.302,0,127.502,0,127.502l41.8-229.849c6.477,5.727,12.801,11.594,18.944,17.612c0.016,0.016-0.096,0.036-0.081,0.052
	c11.954,12.132,12.889,84.683,12.889,84.683v60.5l22.468-106.469c9.504,11.692,18.437,23.846,26.616,36.453
	c2.673,13.838,4.45,25.739,4.139,32.101c-1.113,22.721,12.016,89.915,12.016,89.915l8.044,74.561l23.775-95.38
	C1741.126,493.997,1740.072,588.982,1688.894,669.257z"/>
</svg>
